<svg version="1.1" viewBox="0.0 0.0 949.4225721784777 100.0" fill="none" stroke="none" stroke-linecap="square" stroke-miterlimit="10" xmlns:xlink="http://www.w3.org/1999/xlink" xmlns="http://www.w3.org/2000/svg"><clipPath id="p.0"><path d="m0 0l949.42255 0l0 100.0l-949.42255 0l0 -100.0z" clip-rule="nonzero"/></clipPath><g clip-path="url(#p.0)"><path fill="#000000" fill-opacity="0.0" d="m0 0l949.42255 0l0 100.0l-949.42255 0z" fill-rule="evenodd"/><path fill="#cfe2f3" d="m0 0.69816273l949.4173 0l0 100.0l-949.4173 0z" fill-rule="evenodd"/><path fill="#000000" d="m16.921875 22.21191q0.3125 0.375 0.765625 0.984375q0.453125 0.59375 0.9375 1.34375q0.484375 0.734375 0.953125 1.53125q0.484375 0.796875 0.828125 1.546875l-1.984375 0q-0.375 -0.703125 -0.8125 -1.4375q-0.4375 -0.734375 -0.890625 -1.390625q-0.4375 -0.65625 -0.875 -1.234375q-0.4375 -0.578125 -0.796875 -1.015625q-0.25 0.015625 -0.5 0.015625q-0.25 0 -0.515625 0l-1.609375 0l0 5.0625l-1.8125 0l0 -12.749999q0.765625 -0.171875 1.703125 -0.234375q0.9375 -0.078125 1.71875 -0.078125q2.734375 0 4.15625 1.03125q1.421875 1.031249 1.421875 3.062499q0 1.28125 -0.6875 2.203125q-0.671875 0.90625 -2.0 1.359375zm-2.734375 -6.0625q-1.15625 0 -1.765625 0.046875l0 4.875l1.28125 0q0.9375 0 1.671875 -0.09375q0.75 -0.09375 1.265625 -0.34375q0.515625 -0.265625 0.796875 -0.734375q0.28125 -0.484375 0.28125 -1.28125q0 -0.71875 -0.28125 -1.203125q-0.28125 -0.484375 -0.765625 -0.765625q-0.46875 -0.28125 -1.125 -0.390625q-0.640625 -0.109375 -1.359375 -0.109375zm7.500412 6.640625q0 -1.296875 0.375 -2.25q0.375 -0.96875 0.984375 -1.59375q0.609375 -0.640625 1.40625 -0.953125q0.8125 -0.3125 1.65625 -0.3125q1.953125 0 3.0 1.21875q1.046875 1.21875 1.046875 3.71875q0 0.109375 0 0.296875q0 0.171875 -0.015625 0.3125l-6.640625 0q0.109375 1.515625 0.875 2.296875q0.765625 0.78125 2.390625 0.78125q0.90625 0 1.53125 -0.15625q0.625 -0.15625 0.9375 -0.296875l0.25 1.453125q-0.3125 0.15625 -1.109375 0.34375q-0.796875 0.1875 -1.796875 0.1875q-1.265625 0 -2.203125 -0.375q-0.921875 -0.390625 -1.515625 -1.0625q-0.59375 -0.671875 -0.890625 -1.59375q-0.28125 -0.921875 -0.28125 -2.015625zm6.65625 -0.953125q0.015625 -1.171875 -0.59375 -1.921875q-0.59375 -0.765625 -1.65625 -0.765625q-0.609375 0 -1.0625 0.234375q-0.453125 0.234375 -0.78125 0.609375q-0.3125 0.375 -0.484375 0.859375q-0.171875 0.484375 -0.234375 0.984375l4.8125 0zm10.397598 4.8125q-0.234375 0.140625 -0.875 0.375q-0.640625 0.234375 -1.5 0.234375q-0.875 0 -1.65625 -0.28125q-0.765625 -0.28125 -1.34375 -0.859375q-0.578125 -0.59375 -0.921875 -1.46875q-0.328125 -0.875 -0.328125 -2.09375q0 -1.0625 0.3125 -1.9375q0.3125 -0.890625 0.921875 -1.53125q0.609375 -0.640625 1.484375 -1.0q0.875 -0.375 1.984375 -0.375q1.203125 0 2.109375 0.1875q0.90625 0.171875 1.53125 0.3125l0 8.65625q0 2.25 -1.15625 3.25q-1.15625 1.0 -3.515625 1.0q-0.90625 0 -1.71875 -0.15625q-0.8125 -0.140625 -1.40625 -0.34375l0.3125 -1.5q0.515625 0.203125 1.265625 0.359375q0.765625 0.15625 1.59375 0.15625q1.546875 0 2.21875 -0.625q0.6875 -0.609375 0.6875 -1.953125l0 -0.40625zm-0.015625 -7.203125q-0.265625 -0.078125 -0.703125 -0.140625q-0.4375 -0.0625 -1.1875 -0.0625q-1.40625 0 -2.15625 0.921875q-0.75 0.90625 -0.75 2.421875q0 0.828125 0.203125 1.4375q0.21875 0.59375 0.578125 0.984375q0.375 0.390625 0.84375 0.578125q0.484375 0.1875 0.984375 0.1875q0.6875 0 1.265625 -0.1875q0.578125 -0.203125 0.921875 -0.46875l0 -5.671875zm6.455185 8.171875l-1.734375 0l0 -9.703125l1.734375 0l0 9.703125zm-0.890625 -11.453125q-0.453125 0 -0.78125 -0.31249905q-0.328125 -0.3125 -0.328125 -0.828125q0 -0.515625 0.328125 -0.828125q0.328125 -0.3125 0.78125 -0.3125q0.46875 0 0.796875 0.3125q0.328125 0.3125 0.328125 0.828125q0 0.515625 -0.328125 0.828125q-0.328125 0.31249905 -0.796875 0.31249905zm12.438782 6.609375q0 1.15625 -0.34375 2.09375q-0.328125 0.921875 -0.9375 1.59375q-0.609375 0.671875 -1.453125 1.046875q-0.828125 0.359375 -1.828125 0.359375q-0.984375 0 -1.828125 -0.359375q-0.84375 -0.375 -1.453125 -1.046875q-0.59375 -0.671875 -0.9375 -1.59375q-0.328125 -0.9375 -0.328125 -2.09375q0 -1.140625 0.328125 -2.078125q0.34375 -0.953125 0.9375 -1.625q0.609375 -0.671875 1.453125 -1.03125q0.84375 -0.359375 1.828125 -0.359375q1.0 0 1.828125 0.359375q0.84375 0.359375 1.453125 1.03125q0.609375 0.671875 0.9375 1.625q0.34375 0.9375 0.34375 2.078125zm-1.8125 0q0 -1.65625 -0.75 -2.609375q-0.734375 -0.953125 -2.0 -0.953125q-1.265625 0 -2.0 0.953125q-0.734375 0.953125 -0.734375 2.609375q0 1.640625 0.734375 2.609375q0.734375 0.953125 2.0 0.953125q1.265625 0 2.0 -0.953125q0.75 -0.96875 0.75 -2.609375zm4.257187 -4.578125q0.59375 -0.15625 1.578125 -0.3125q0.984375 -0.171875 2.28125 -0.171875q1.15625 0 1.921875 0.328125q0.765625 0.328125 1.21875 0.921875q0.453125 0.578125 0.640625 1.40625q0.1875 0.8125 0.1875 1.796875l0 5.453125l-1.734375 0l0 -5.078125q0 -0.890625 -0.125 -1.515625q-0.125 -0.640625 -0.40625 -1.03125q-0.265625 -0.390625 -0.734375 -0.5625q-0.46875 -0.1875 -1.15625 -0.1875q-0.28125 0 -0.578125 0.015625q-0.296875 0.015625 -0.578125 0.046875q-0.265625 0.03125 -0.484375 0.078125q-0.203125 0.03125 -0.296875 0.046875l0 8.1875l-1.734375 0l0 -9.421875zm15.25267 -0.84375q1.0625 -0.40625 2.0625 -1.046875q1.015625 -0.64062405 1.859375 -1.609374l1.234375 0l0 12.921874l-1.734375 0l0 -10.515625q-0.234375 0.203125 -0.5625 0.421875q-0.328125 0.21875 -0.71875 0.4375q-0.375 0.203125 -0.796875 0.390625q-0.40625 0.1875 -0.796875 0.3125l-0.546875 -1.3125z" fill-rule="nonzero"/></g></svg>