<svg version="1.1" viewBox="0.0 0.0 730.0 1104.0" fill="none" stroke="none" stroke-linecap="square" stroke-miterlimit="10" xmlns:xlink="http://www.w3.org/1999/xlink" xmlns="http://www.w3.org/2000/svg"><clipPath id="p.0"><path d="m0 0l730.0 0l0 1104.0l-730.0 0l0 -1104.0z" clip-rule="nonzero"/></clipPath><g clip-path="url(#p.0)"><path fill="#000000" fill-opacity="0.0" d="m0 0l730.0 0l0 1104.0l-730.0 0z" fill-rule="evenodd"/><path fill="#d9ead3" d="m79.07511 284.01346l0 0c0 -14.3594055 44.24273 -26.0 98.8189 -26.0l0 0c54.57617 0 98.81891 11.6405945 98.81891 26.0l0 0c0 14.3594055 -44.242737 26.0 -98.81891 26.0l0 0c-54.57617 0 -98.8189 -11.6405945 -98.8189 -26.0z" fill-rule="evenodd"/><path fill="#000000" d="m159.11877 274.5272q0.3125 0.375 0.765625 0.984375q0.453125 0.59375 0.9375 1.34375q0.484375 0.734375 0.953125 1.53125q0.484375 0.796875 0.828125 1.546875l-1.984375 0q-0.375 -0.703125 -0.8125 -1.4375q-0.4375 -0.734375 -0.890625 -1.390625q-0.4375 -0.65625 -0.875 -1.234375q-0.4375 -0.578125 -0.796875 -1.015625q-0.25 0.015625 -0.5 0.015625q-0.25 0 -0.515625 0l-1.609375 0l0 5.0625l-1.8125 0l0 -12.75q0.765625 -0.171875 1.703125 -0.234375q0.9375 -0.078125 1.71875 -0.078125q2.734375 0 4.15625 1.03125q1.421875 1.03125 1.421875 3.0625q0 1.28125 -0.6875 2.203125q-0.671875 0.90625 -2.0 1.359375zm-2.734375 -6.0625q-1.15625 0 -1.765625 0.046875l0 4.875l1.28125 0q0.9375 0 1.671875 -0.09375q0.75 -0.09375 1.265625 -0.34375q0.515625 -0.265625 0.796875 -0.734375q0.28125 -0.484375 0.28125 -1.28125q0 -0.71875 -0.28125 -1.203125q-0.28125 -0.484375 -0.765625 -0.765625q-0.46875 -0.28125 -1.125 -0.390625q-0.640625 -0.109375 -1.359375 -0.109375zm11.328537 10.21875q0.609375 0 1.078125 -0.03125q0.484375 -0.03125 0.796875 -0.09375l0 -2.890625q-0.1875 -0.09375 -0.609375 -0.15625q-0.40625 -0.078125 -1.015625 -0.078125q-0.390625 0 -0.828125 0.0625q-0.4375 0.046875 -0.796875 0.234375q-0.359375 0.171875 -0.609375 0.484375q-0.234375 0.296875 -0.234375 0.8125q0 0.921875 0.59375 1.296875q0.59375 0.359375 1.625 0.359375zm-0.15625 -8.6875q1.046875 0 1.765625 0.265625q0.71875 0.265625 1.15625 0.765625q0.4375 0.5 0.625 1.1875q0.1875 0.671875 0.1875 1.484375l0 6.0625q-0.21875 0.046875 -0.625 0.109375q-0.40625 0.0625 -0.90625 0.109375q-0.5 0.0625 -1.09375 0.109375q-0.578125 0.046875 -1.15625 0.046875q-0.828125 0 -1.515625 -0.171875q-0.6875 -0.15625 -1.203125 -0.515625q-0.5 -0.375 -0.78125 -0.96875q-0.28125 -0.59375 -0.28125 -1.4375q0 -0.796875 0.328125 -1.375q0.328125 -0.578125 0.890625 -0.9375q0.5625 -0.359375 1.296875 -0.515625q0.75 -0.171875 1.578125 -0.171875q0.265625 0 0.53125 0.03125q0.28125 0.015625 0.53125 0.0625q0.265625 0.046875 0.4375 0.09375q0.1875 0.03125 0.265625 0.046875l0 -0.484375q0 -0.421875 -0.09375 -0.84375q-0.09375 -0.421875 -0.34375 -0.75q-0.234375 -0.328125 -0.65625 -0.515625q-0.40625 -0.203125 -1.078125 -0.203125q-0.859375 0 -1.515625 0.125q-0.640625 0.125 -0.953125 0.25l-0.203125 -1.4375q0.328125 -0.140625 1.109375 -0.28125q0.796875 -0.140625 1.703125 -0.140625zm6.613571 0.515625q0.59375 -0.15625 1.578125 -0.3125q0.984375 -0.171875 2.28125 -0.171875q1.15625 0 1.921875 0.328125q0.765625 0.328125 1.21875 0.921875q0.453125 0.578125 0.640625 1.40625q0.1875 0.8125 0.1875 1.796875l0 5.453125l-1.734375 0l0 -5.078125q0 -0.890625 -0.125 -1.515625q-0.125 -0.640625 -0.40625 -1.03125q-0.265625 -0.390625 -0.734375 -0.5625q-0.46875 -0.1875 -1.15625 -0.1875q-0.28125 0 -0.578125 0.015625q-0.296875 0.015625 -0.578125 0.046875q-0.265625 0.03125 -0.484375 0.078125q-0.203125 0.03125 -0.296875 0.046875l0 8.1875l-1.734375 0l0 -9.421875zm16.78682 8.453125q-0.234375 0.140625 -0.875 0.375q-0.640625 0.234375 -1.5 0.234375q-0.875 0 -1.65625 -0.28125q-0.765625 -0.28125 -1.34375 -0.859375q-0.578125 -0.59375 -0.921875 -1.46875q-0.328125 -0.875 -0.328125 -2.09375q0 -1.0625 0.3125 -1.9375q0.3125 -0.890625 0.921875 -1.53125q0.609375 -0.640625 1.484375 -1.0q0.875 -0.375 1.984375 -0.375q1.203125 0 2.109375 0.1875q0.90625 0.171875 1.53125 0.3125l0 8.65625q0 2.25 -1.15625 3.25q-1.15625 1.0 -3.515625 1.0q-0.90625 0 -1.71875 -0.15625q-0.8125 -0.140625 -1.40625 -0.34375l0.3125 -1.5q0.515625 0.203125 1.265625 0.359375q0.765625 0.15625 1.59375 0.15625q1.546875 0 2.21875 -0.625q0.6875 -0.609375 0.6875 -1.953125l0 -0.40625zm-0.015625 -7.203125q-0.265625 -0.078125 -0.703125 -0.140625q-0.4375 -0.0625 -1.1875 -0.0625q-1.40625 0 -2.15625 0.921875q-0.75 0.90625 -0.75 2.421875q0 0.828125 0.203125 1.4375q0.21875 0.59375 0.578125 0.984375q0.375 0.390625 0.84375 0.578125q0.484375 0.1875 0.984375 0.1875q0.6875 0 1.265625 -0.1875q0.578125 -0.203125 0.921875 -0.46875l0 -5.671875zm4.173935 3.34375q0 -1.296875 0.375 -2.25q0.375 -0.96875 0.984375 -1.59375q0.609375 -0.640625 1.40625 -0.953125q0.8125 -0.3125 1.65625 -0.3125q1.953125 0 3.0 1.21875q1.046875 1.21875 1.046875 3.71875q0 0.109375 0 0.296875q0 0.171875 -0.015625 0.3125l-6.640625 0q0.109375 1.515625 0.875 2.296875q0.765625 0.78125 2.390625 0.78125q0.90625 0 1.53125 -0.15625q0.625 -0.15625 0.9375 -0.296875l0.25 1.453125q-0.3125 0.15625 -1.109375 0.34375q-0.796875 0.1875 -1.796875 0.1875q-1.265625 0 -2.203125 -0.375q-0.921875 -0.390625 -1.515625 -1.0625q-0.59375 -0.671875 -0.890625 -1.59375q-0.28125 -0.921875 -0.28125 -2.015625zm6.65625 -0.953125q0.015625 -1.171875 -0.59375 -1.921875q-0.59375 -0.765625 -1.65625 -0.765625q-0.609375 0 -1.0625 0.234375q-0.453125 0.234375 -0.78125 0.609375q-0.3125 0.375 -0.484375 0.859375q-0.171875 0.484375 -0.234375 0.984375l4.8125 0z" fill-rule="nonzero"/><path fill="#000000" d="m152.07742 292.0272q0.21875 0 0.5 0.03125q0.296875 0.03125 0.578125 0.078125q0.28125 0.046875 0.515625 0.09375q0.234375 0.046875 0.34375 0.078125l-0.296875 1.515625q-0.203125 -0.078125 -0.6875 -0.171875q-0.46875 -0.109375 -1.21875 -0.109375q-0.484375 0 -0.96875 0.109375q-0.46875 0.09375 -0.609375 0.125l0 8.15625l-1.734375 0l0 -9.296875q0.609375 -0.21875 1.515625 -0.40625q0.921875 -0.203125 2.0625 -0.203125zm3.0763092 5.078125q0 -1.296875 0.375 -2.25q0.375 -0.96875 0.984375 -1.59375q0.609375 -0.640625 1.40625 -0.953125q0.8125 -0.3125 1.65625 -0.3125q1.953125 0 3.0 1.21875q1.046875 1.21875 1.046875 3.71875q0 0.109375 0 0.296875q0 0.171875 -0.015625 0.3125l-6.640625 0q0.109375 1.515625 0.875 2.296875q0.765625 0.78125 2.390625 0.78125q0.90625 0 1.53125 -0.15625q0.625 -0.15625 0.9375 -0.296875l0.25 1.453125q-0.3125 0.15625 -1.109375 0.34375q-0.796875 0.1875 -1.796875 0.1875q-1.265625 0 -2.203125 -0.375q-0.921875 -0.390625 -1.515625 -1.0625q-0.59375 -0.671875 -0.890625 -1.59375q-0.28125 -0.921875 -0.28125 -2.015625zm6.65625 -0.953125q0.015625 -1.171875 -0.59375 -1.921875q-0.59375 -0.765625 -1.65625 -0.765625q-0.609375 0 -1.0625 0.234375q-0.453125 0.234375 -0.78125 0.609375q-0.3125 0.375 -0.484375 0.859375q-0.171875 0.484375 -0.234375 0.984375l4.8125 0zm12.241348 5.78125q-0.515625 -1.34375 -1.109375 -3.0625q-0.59375 -1.734375 -1.078125 -3.59375q-0.484375 1.859375 -1.0625 3.59375q-0.578125 1.71875 -1.09375 3.0625l-1.515625 0q-0.859375 -1.921875 -1.6875 -4.375q-0.8125 -2.46875 -1.546875 -5.328125l1.875 0q0.1875 0.875 0.4375 1.90625q0.265625 1.03125 0.546875 2.0625q0.296875 1.015625 0.609375 1.96875q0.328125 0.953125 0.609375 1.65625q0.3125 -0.875 0.609375 -1.84375q0.3125 -0.984375 0.59375 -1.984375q0.28125 -1.0 0.53125 -1.953125q0.265625 -0.96875 0.4375 -1.8125l1.4375 0q0.171875 0.84375 0.40625 1.8125q0.25 0.953125 0.53125 1.953125q0.28125 1.0 0.578125 1.984375q0.3125 0.96875 0.640625 1.84375q0.28125 -0.703125 0.578125 -1.65625q0.3125 -0.953125 0.609375 -1.96875q0.296875 -1.03125 0.5625 -2.0625q0.265625 -1.03125 0.453125 -1.90625l1.78125 0q-0.71875 2.859375 -1.546875 5.328125q-0.8125 2.453125 -1.671875 4.375l-1.515625 0zm10.152161 -9.90625q0.21875 0 0.5 0.03125q0.296875 0.03125 0.578125 0.078125q0.28125 0.046875 0.515625 0.09375q0.234375 0.046875 0.34375 0.078125l-0.296875 1.515625q-0.203125 -0.078125 -0.6875 -0.171875q-0.46875 -0.109375 -1.21875 -0.109375q-0.484375 0 -0.96875 0.109375q-0.46875 0.09375 -0.609375 0.125l0 8.15625l-1.734375 0l0 -9.296875q0.609375 -0.21875 1.515625 -0.40625q0.921875 -0.203125 2.0625 -0.203125zm5.357559 9.90625l-1.734375 0l0 -9.703125l1.734375 0l0 9.703125zm-0.890625 -11.453125q-0.453125 0 -0.78125 -0.3125q-0.328125 -0.3125 -0.328125 -0.828125q0 -0.515625 0.328125 -0.828125q0.328125 -0.3125 0.78125 -0.3125q0.46875 0 0.796875 0.3125q0.328125 0.3125 0.328125 0.828125q0 0.515625 -0.328125 0.828125q-0.328125 0.3125 -0.796875 0.3125zm5.4856567 1.75l3.6875 0l0 1.453125l-3.6875 0l0 4.484375q0 0.71875 0.109375 1.203125q0.125 0.46875 0.34375 0.75q0.21875 0.265625 0.546875 0.375q0.34375 0.109375 0.796875 0.109375q0.78125 0 1.25 -0.171875q0.484375 -0.171875 0.671875 -0.25l0.328125 1.4375q-0.25 0.125 -0.90625 0.3125q-0.65625 0.203125 -1.5 0.203125q-0.984375 0 -1.625 -0.25q-0.640625 -0.25 -1.03125 -0.75q-0.390625 -0.515625 -0.5625 -1.25q-0.15625 -0.734375 -0.15625 -1.703125l0 -8.65625l1.734375 -0.296875l0 3.0zm5.156906 4.875q0 -1.296875 0.375 -2.25q0.375 -0.96875 0.984375 -1.59375q0.609375 -0.640625 1.40625 -0.953125q0.8125 -0.3125 1.65625 -0.3125q1.953125 0 3.0 1.21875q1.046875 1.21875 1.046875 3.71875q0 0.109375 0 0.296875q0 0.171875 -0.015625 0.3125l-6.640625 0q0.109375 1.515625 0.875 2.296875q0.765625 0.78125 2.390625 0.78125q0.90625 0 1.53125 -0.15625q0.625 -0.15625 0.9375 -0.296875l0.25 1.453125q-0.3125 0.15625 -1.109375 0.34375q-0.796875 0.1875 -1.796875 0.1875q-1.265625 0 -2.203125 -0.375q-0.921875 -0.390625 -1.515625 -1.0625q-0.59375 -0.671875 -0.890625 -1.59375q-0.28125 -0.921875 -0.28125 -2.015625zm6.65625 -0.953125q0.015625 -1.171875 -0.59375 -1.921875q-0.59375 -0.765625 -1.65625 -0.765625q-0.609375 0 -1.0625 0.234375q-0.453125 0.234375 -0.78125 0.609375q-0.3125 0.375 -0.484375 0.859375q-0.171875 0.484375 -0.234375 0.984375l4.8125 0z" fill-rule="nonzero"/><path fill="#cc4125" d="m103.91076 88.91863l0 0c0 10.2150955 33.12388 18.496063 73.98426 18.496063c40.860367 0 73.98425 -8.280968 73.98425 -18.496063l0 115.13386c0 10.215103 -33.123886 18.496063 -73.98425 18.496063c-40.860382 0 -73.98426 -8.28096 -73.98426 -18.496063z" fill-rule="evenodd"/><path fill="#e08d7c" d="m103.91076 88.91863l0 0c0 -10.215088 33.12388 -18.496063 73.98426 -18.496063c40.860367 0 73.98425 8.280975 73.98425 18.496063l0 0c0 10.2150955 -33.123886 18.496063 -73.98425 18.496063c-40.860382 0 -73.98426 -8.280968 -73.98426 -18.496063z" fill-rule="evenodd"/><path fill="#000000" fill-opacity="0.0" d="m251.87927 88.91863l0 0c0 10.2150955 -33.123886 18.496063 -73.98425 18.496063c-40.860382 0 -73.98426 -8.280968 -73.98426 -18.496063l0 0c0 -10.215088 33.12388 -18.496063 73.98426 -18.496063c40.860367 0 73.98425 8.280975 73.98425 18.496063l0 115.13386c0 10.215103 -33.123886 18.496063 -73.98425 18.496063c-40.860382 0 -73.98426 -8.28096 -73.98426 -18.496063l0 -115.13386" fill-rule="evenodd"/><path fill="#000000" d="m145.2333 145.18484q0 -1.671875 0.5 -2.9375q0.5 -1.265625 1.34375 -2.109375q0.84375 -0.859375 1.96875 -1.28125q1.140625 -0.4375 2.40625 -0.4375q1.25 0 2.359375 0.4375q1.109375 0.421875 1.9375 1.28125q0.84375 0.84375 1.34375 2.109375q0.5 1.265625 0.5 2.9375q0 1.65625 -0.5 2.921875q-0.5 1.265625 -1.34375 2.125q-0.828125 0.84375 -1.9375 1.28125q-1.109375 0.421875 -2.359375 0.421875q-1.265625 0 -2.40625 -0.421875q-1.125 -0.4375 -1.96875 -1.28125q-0.84375 -0.859375 -1.34375 -2.125q-0.5 -1.265625 -0.5 -2.921875zm1.90625 0q0 1.171875 0.296875 2.140625q0.296875 0.953125 0.84375 1.625q0.5625 0.671875 1.34375 1.03125q0.796875 0.359375 1.78125 0.359375q1.0 0 1.78125 -0.359375q0.78125 -0.359375 1.328125 -1.03125q0.546875 -0.671875 0.84375 -1.625q0.3125 -0.96875 0.3125 -2.140625q0 -1.1875 -0.3125 -2.140625q-0.296875 -0.96875 -0.84375 -1.625q-0.546875 -0.671875 -1.328125 -1.03125q-0.78125 -0.375 -1.78125 -0.375q-0.984375 0 -1.78125 0.375q-0.78125 0.359375 -1.34375 1.03125q-0.546875 0.65625 -0.84375 1.625q-0.296875 0.953125 -0.296875 2.140625zm16.608322 -3.4375q0.21875 0 0.5 0.03125q0.296875 0.03125 0.578125 0.078125q0.28125 0.046875 0.515625 0.09375q0.234375 0.046875 0.34375 0.078125l-0.296875 1.515625q-0.203125 -0.078125 -0.6875 -0.171875q-0.46875 -0.109375 -1.21875 -0.109375q-0.484375 0 -0.96875 0.109375q-0.46875 0.09375 -0.609375 0.125l0 8.15625l-1.734375 0l0 -9.296875q0.609375 -0.21875 1.515625 -0.40625q0.921875 -0.203125 2.0625 -0.203125zm5.357559 9.90625l-1.734375 0l0 -9.703125l1.734375 0l0 9.703125zm-0.890625 -11.453125q-0.453125 0 -0.78125 -0.3125q-0.328125 -0.3125 -0.328125 -0.828125q0 -0.515625 0.328125 -0.828125q0.328125 -0.3125 0.78125 -0.3125q0.46875 0 0.796875 0.3125q0.328125 0.3125 0.328125 0.828125q0 0.515625 -0.328125 0.828125q-0.328125 0.3125 -0.796875 0.3125zm9.954407 10.484375q-0.234375 0.140625 -0.875 0.375q-0.640625 0.234375 -1.5 0.234375q-0.875 0 -1.65625 -0.28125q-0.765625 -0.28125 -1.34375 -0.859375q-0.578125 -0.59375 -0.921875 -1.46875q-0.328125 -0.875 -0.328125 -2.09375q0 -1.0625 0.3125 -1.9375q0.3125 -0.890625 0.921875 -1.53125q0.609375 -0.640625 1.484375 -1.0q0.875 -0.375 1.984375 -0.375q1.203125 0 2.109375 0.1875q0.90625 0.171875 1.53125 0.3125l0 8.65625q0 2.25 -1.15625 3.25q-1.15625 1.0 -3.515625 1.0q-0.90625 0 -1.71875 -0.15625q-0.8125 -0.140625 -1.40625 -0.34375l0.3125 -1.5q0.515625 0.203125 1.265625 0.359375q0.765625 0.15625 1.59375 0.15625q1.546875 0 2.21875 -0.625q0.6875 -0.609375 0.6875 -1.953125l0 -0.40625zm-0.015625 -7.203125q-0.265625 -0.078125 -0.703125 -0.140625q-0.4375 -0.0625 -1.1875 -0.0625q-1.40625 0 -2.15625 0.921875q-0.75 0.90625 -0.75 2.421875q0 0.828125 0.203125 1.4375q0.21875 0.59375 0.578125 0.984375q0.375 0.390625 0.84375 0.578125q0.484375 0.1875 0.984375 0.1875q0.6875 0 1.265625 -0.1875q0.578125 -0.203125 0.921875 -0.46875l0 -5.671875zm6.455185 8.171875l-1.734375 0l0 -9.703125l1.734375 0l0 9.703125zm-0.890625 -11.453125q-0.453125 0 -0.78125 -0.3125q-0.328125 -0.3125 -0.328125 -0.828125q0 -0.515625 0.328125 -0.828125q0.328125 -0.3125 0.78125 -0.3125q0.46875 0 0.796875 0.3125q0.328125 0.3125 0.328125 0.828125q0 0.515625 -0.328125 0.828125q-0.328125 0.3125 -0.796875 0.3125zm3.8762817 2.03125q0.59375 -0.15625 1.578125 -0.3125q0.984375 -0.171875 2.28125 -0.171875q1.15625 0 1.921875 0.328125q0.765625 0.328125 1.21875 0.921875q0.453125 0.578125 0.640625 1.40625q0.1875 0.8125 0.1875 1.796875l0 5.453125l-1.734375 0l0 -5.078125q0 -0.890625 -0.125 -1.515625q-0.125 -0.640625 -0.40625 -1.03125q-0.265625 -0.390625 -0.734375 -0.5625q-0.46875 -0.1875 -1.15625 -0.1875q-0.28125 0 -0.578125 0.015625q-0.296875 0.015625 -0.578125 0.046875q-0.265625 0.03125 -0.484375 0.078125q-0.203125 0.03125 -0.296875 0.046875l0 8.1875l-1.734375 0l0 -9.421875zm13.989944 8.171875q0.609375 0 1.078125 -0.03125q0.484375 -0.03125 0.796875 -0.09375l0 -2.890625q-0.1875 -0.09375 -0.609375 -0.15625q-0.40625 -0.078125 -1.015625 -0.078125q-0.390625 0 -0.828125 0.0625q-0.4375 0.046875 -0.796875 0.234375q-0.359375 0.171875 -0.609375 0.484375q-0.234375 0.296875 -0.234375 0.8125q0 0.921875 0.59375 1.296875q0.59375 0.359375 1.625 0.359375zm-0.15625 -8.6875q1.046875 0 1.765625 0.265625q0.71875 0.265625 1.15625 0.765625q0.4375 0.5 0.625 1.1875q0.1875 0.671875 0.1875 1.484375l0 6.0625q-0.21875 0.046875 -0.625 0.109375q-0.40625 0.0625 -0.90625 0.109375q-0.5 0.0625 -1.09375 0.109375q-0.578125 0.046875 -1.15625 0.046875q-0.828125 0 -1.515625 -0.171875q-0.6875 -0.15625 -1.203125 -0.515625q-0.5 -0.375 -0.78125 -0.96875q-0.28125 -0.59375 -0.28125 -1.4375q0 -0.796875 0.328125 -1.375q0.328125 -0.578125 0.890625 -0.9375q0.5625 -0.359375 1.296875 -0.515625q0.75 -0.171875 1.578125 -0.171875q0.265625 0 0.53125 0.03125q0.28125 0.015625 0.53125 0.0625q0.265625 0.046875 0.4375 0.09375q0.1875 0.03125 0.265625 0.046875l0 -0.484375q0 -0.421875 -0.09375 -0.84375q-0.09375 -0.421875 -0.34375 -0.75q-0.234375 -0.328125 -0.65625 -0.515625q-0.40625 -0.203125 -1.078125 -0.203125q-0.859375 0 -1.515625 0.125q-0.640625 0.125 -0.953125 0.25l-0.203125 -1.4375q0.328125 -0.140625 1.109375 -0.28125q0.796875 -0.140625 1.703125 -0.140625zm9.519821 10.125q-1.609375 -0.03125 -2.28125 -0.6875q-0.671875 -0.65625 -0.671875 -2.03125l0 -11.640625l1.734375 -0.3125l0 11.671875q0 0.421875 0.078125 0.703125q0.078125 0.28125 0.234375 0.453125q0.171875 0.15625 0.453125 0.25q0.28125 0.078125 0.6875 0.140625l-0.234375 1.453125z" fill-rule="nonzero"/><path fill="#000000" d="m167.30887 172.37234q2.828125 0 2.828125 -1.953125q0 -0.59375 -0.25 -1.015625q-0.25 -0.421875 -0.6875 -0.71875q-0.421875 -0.3125 -0.96875 -0.53125q-0.546875 -0.234375 -1.171875 -0.453125q-0.703125 -0.234375 -1.34375 -0.546875q-0.625 -0.3125 -1.09375 -0.734375q-0.46875 -0.421875 -0.734375 -1.0q-0.265625 -0.578125 -0.265625 -1.390625q0 -1.703125 1.15625 -2.65625q1.15625 -0.953125 3.1875 -0.953125q1.171875 0 2.125 0.265625q0.96875 0.25 1.421875 0.546875l-0.578125 1.46875q-0.40625 -0.234375 -1.1875 -0.46875q-0.765625 -0.234375 -1.78125 -0.234375q-0.53125 0 -0.984375 0.109375q-0.4375 0.109375 -0.78125 0.34375q-0.328125 0.21875 -0.53125 0.5625q-0.1875 0.34375 -0.1875 0.8125q0 0.515625 0.203125 0.875q0.203125 0.359375 0.578125 0.625q0.375 0.265625 0.859375 0.5q0.5 0.21875 1.09375 0.4375q0.84375 0.34375 1.546875 0.6875q0.703125 0.328125 1.203125 0.796875q0.515625 0.453125 0.796875 1.109375q0.28125 0.640625 0.28125 1.546875q0 1.703125 -1.25 2.625q-1.234375 0.90625 -3.484375 0.90625q-0.765625 0 -1.40625 -0.109375q-0.640625 -0.09375 -1.15625 -0.234375q-0.5 -0.140625 -0.859375 -0.296875q-0.359375 -0.15625 -0.578125 -0.28125l0.546875 -1.484375q0.421875 0.234375 1.296875 0.546875q0.890625 0.296875 2.15625 0.296875zm9.925125 0q2.828125 0 2.828125 -1.953125q0 -0.59375 -0.25 -1.015625q-0.25 -0.421875 -0.6875 -0.71875q-0.421875 -0.3125 -0.96875 -0.53125q-0.546875 -0.234375 -1.171875 -0.453125q-0.703125 -0.234375 -1.34375 -0.546875q-0.625 -0.3125 -1.09375 -0.734375q-0.46875 -0.421875 -0.734375 -1.0q-0.265625 -0.578125 -0.265625 -1.390625q0 -1.703125 1.15625 -2.65625q1.15625 -0.953125 3.1875 -0.953125q1.171875 0 2.125 0.265625q0.96875 0.25 1.421875 0.546875l-0.578125 1.46875q-0.40625 -0.234375 -1.1875 -0.46875q-0.765625 -0.234375 -1.78125 -0.234375q-0.53125 0 -0.984375 0.109375q-0.4375 0.109375 -0.78125 0.34375q-0.328125 0.21875 -0.53125 0.5625q-0.1875 0.34375 -0.1875 0.8125q0 0.515625 0.203125 0.875q0.203125 0.359375 0.578125 0.625q0.375 0.265625 0.859375 0.5q0.5 0.21875 1.09375 0.4375q0.84375 0.34375 1.546875 0.6875q0.703125 0.328125 1.203125 0.796875q0.515625 0.453125 0.796875 1.109375q0.28125 0.640625 0.28125 1.546875q0 1.703125 -1.25 2.625q-1.234375 0.90625 -3.484375 0.90625q-0.765625 0 -1.40625 -0.109375q-0.640625 -0.09375 -1.15625 -0.234375q-0.5 -0.140625 -0.859375 -0.296875q-0.359375 -0.15625 -0.578125 -0.28125l0.546875 -1.484375q0.421875 0.234375 1.296875 0.546875q0.890625 0.296875 2.15625 0.296875zm15.56575 -11.640625l0 1.5625l-4.078125 0l0 11.359375l-1.8125 0l0 -11.359375l-4.0625 0l0 -1.5625l9.953125 0z" fill-rule="nonzero"/><path fill="#000000" fill-opacity="0.0" d="m177.89502 222.54855l0 35.46457" fill-rule="evenodd"/><path stroke="#000000" stroke-width="1.0" stroke-linejoin="round" stroke-linecap="butt" d="m177.89502 222.54855l0 35.46457" fill-rule="evenodd"/><path fill="#9fc5e8" d="m79.07511 345.47803l197.63782 0l0 52.0l-197.63782 0z" fill-rule="evenodd"/><path fill="#000000" d="m149.26004 365.3355q2.734375 0 4.1875 1.046875q1.46875 1.03125 1.46875 3.078125q0 1.125 -0.40625 1.921875q-0.390625 0.78125 -1.15625 1.28125q-0.75 0.484375 -1.828125 0.71875q-1.078125 0.21875 -2.453125 0.21875l-1.421875 0l0 4.796875l-1.8125 0l0 -12.75q0.765625 -0.171875 1.703125 -0.234375q0.9375 -0.078125 1.71875 -0.078125zm0.15625 1.59375q-1.15625 0 -1.765625 0.046875l0 5.078125l1.359375 0q0.921875 0 1.671875 -0.109375q0.75 -0.125 1.265625 -0.40625q0.515625 -0.296875 0.78125 -0.796875q0.28125 -0.515625 0.28125 -1.296875q0 -0.75 -0.296875 -1.234375q-0.28125 -0.484375 -0.78125 -0.765625q-0.484375 -0.296875 -1.140625 -0.40625q-0.65625 -0.109375 -1.375 -0.109375zm11.233627 1.5625q0.21875 0 0.5 0.03125q0.296875 0.03125 0.578125 0.078125q0.28125 0.046875 0.515625 0.09375q0.234375 0.046875 0.34375 0.078125l-0.296875 1.515625q-0.203125 -0.078125 -0.6875 -0.171875q-0.46875 -0.109375 -1.21875 -0.109375q-0.484375 0 -0.96875 0.109375q-0.46875 0.09375 -0.609375 0.125l0 8.15625l-1.734375 0l0 -9.296875q0.609375 -0.21875 1.515625 -0.40625q0.921875 -0.203125 2.0625 -0.203125zm3.0763092 5.078125q0 -1.296875 0.375 -2.25q0.375 -0.96875 0.984375 -1.59375q0.609375 -0.640625 1.40625 -0.953125q0.8125 -0.3125 1.65625 -0.3125q1.953125 0 3.0 1.21875q1.046875 1.21875 1.046875 3.71875q0 0.109375 0 0.296875q0 0.171875 -0.015625 0.3125l-6.640625 0q0.109375 1.515625 0.875 2.296875q0.765625 0.78125 2.390625 0.78125q0.90625 0 1.53125 -0.15625q0.625 -0.15625 0.9375 -0.296875l0.25 1.453125q-0.3125 0.15625 -1.109375 0.34375q-0.796875 0.1875 -1.796875 0.1875q-1.265625 0 -2.203125 -0.375q-0.921875 -0.390625 -1.515625 -1.0625q-0.59375 -0.671875 -0.890625 -1.59375q-0.28125 -0.921875 -0.28125 -2.015625zm6.65625 -0.953125q0.015625 -1.171875 -0.59375 -1.921875q-0.59375 -0.765625 -1.65625 -0.765625q-0.609375 0 -1.0625 0.234375q-0.453125 0.234375 -0.78125 0.609375q-0.3125 0.375 -0.484375 0.859375q-0.171875 0.484375 -0.234375 0.984375l4.8125 0zm11.053848 0.953125q0 -1.703125 -0.84375 -2.609375q-0.84375 -0.921875 -2.234375 -0.921875q-0.796875 0 -1.234375 0.0625q-0.4375 0.046875 -0.6875 0.125l0 6.125q0.3125 0.25 0.90625 0.5q0.59375 0.234375 1.3125 0.234375q0.734375 0 1.265625 -0.265625q0.53125 -0.265625 0.859375 -0.734375q0.34375 -0.484375 0.5 -1.125q0.15625 -0.640625 0.15625 -1.390625zm1.796875 0q0 1.09375 -0.296875 2.03125q-0.28125 0.9375 -0.84375 1.609375q-0.546875 0.671875 -1.359375 1.046875q-0.8125 0.359375 -1.859375 0.359375q-0.84375 0 -1.484375 -0.21875q-0.640625 -0.21875 -0.953125 -0.421875l0 3.875l-1.734375 0l0 -12.859375q0.609375 -0.140625 1.53125 -0.3125q0.921875 -0.1875 2.140625 -0.1875q1.109375 0 2.0 0.359375q0.90625 0.34375 1.53125 1.0q0.640625 0.65625 0.984375 1.609375q0.34375 0.9375 0.34375 2.109375zm5.7385406 3.578125q0.609375 0 1.078125 -0.03125q0.484375 -0.03125 0.796875 -0.09375l0 -2.890625q-0.1875 -0.09375 -0.609375 -0.15625q-0.40625 -0.078125 -1.015625 -0.078125q-0.390625 0 -0.828125 0.0625q-0.4375 0.046875 -0.796875 0.234375q-0.359375 0.171875 -0.609375 0.484375q-0.234375 0.296875 -0.234375 0.8125q0 0.921875 0.59375 1.296875q0.59375 0.359375 1.625 0.359375zm-0.15625 -8.6875q1.046875 0 1.765625 0.265625q0.71875 0.265625 1.15625 0.765625q0.4375 0.5 0.625 1.1875q0.1875 0.671875 0.1875 1.484375l0 6.0625q-0.21875 0.046875 -0.625 0.109375q-0.40625 0.0625 -0.90625 0.109375q-0.5 0.0625 -1.09375 0.109375q-0.578125 0.046875 -1.15625 0.046875q-0.828125 0 -1.515625 -0.171875q-0.6875 -0.15625 -1.203125 -0.515625q-0.5 -0.375 -0.78125 -0.96875q-0.28125 -0.59375 -0.28125 -1.4375q0 -0.796875 0.328125 -1.375q0.328125 -0.578125 0.890625 -0.9375q0.5625 -0.359375 1.296875 -0.515625q0.75 -0.171875 1.578125 -0.171875q0.265625 0 0.53125 0.03125q0.28125 0.015625 0.53125 0.0625q0.265625 0.046875 0.4375 0.09375q0.1875 0.03125 0.265625 0.046875l0 -0.484375q0 -0.421875 -0.09375 -0.84375q-0.09375 -0.421875 -0.34375 -0.75q-0.234375 -0.328125 -0.65625 -0.515625q-0.40625 -0.203125 -1.078125 -0.203125q-0.859375 0 -1.515625 0.125q-0.640625 0.125 -0.953125 0.25l-0.203125 -1.4375q0.328125 -0.140625 1.109375 -0.28125q0.796875 -0.140625 1.703125 -0.140625zm10.191696 0.03125q0.21875 0 0.5 0.03125q0.296875 0.03125 0.578125 0.078125q0.28125 0.046875 0.515625 0.09375q0.234375 0.046875 0.34375 0.078125l-0.296875 1.515625q-0.203125 -0.078125 -0.6875 -0.171875q-0.46875 -0.109375 -1.21875 -0.109375q-0.484375 0 -0.96875 0.109375q-0.46875 0.09375 -0.609375 0.125l0 8.15625l-1.734375 0l0 -9.296875q0.609375 -0.21875 1.515625 -0.40625q0.921875 -0.203125 2.0625 -0.203125zm3.0763092 5.078125q0 -1.296875 0.375 -2.25q0.375 -0.96875 0.984375 -1.59375q0.609375 -0.640625 1.40625 -0.953125q0.8125 -0.3125 1.65625 -0.3125q1.953125 0 3.0 1.21875q1.046875 1.21875 1.046875 3.71875q0 0.109375 0 0.296875q0 0.171875 -0.015625 0.3125l-6.640625 0q0.109375 1.515625 0.875 2.296875q0.765625 0.78125 2.390625 0.78125q0.90625 0 1.53125 -0.15625q0.625 -0.15625 0.9375 -0.296875l0.25 1.453125q-0.3125 0.15625 -1.109375 0.34375q-0.796875 0.1875 -1.796875 0.1875q-1.265625 0 -2.203125 -0.375q-0.921875 -0.390625 -1.515625 -1.0625q-0.59375 -0.671875 -0.890625 -1.59375q-0.28125 -0.921875 -0.28125 -2.015625zm6.65625 -0.953125q0.015625 -1.171875 -0.59375 -1.921875q-0.59375 -0.765625 -1.65625 -0.765625q-0.609375 0 -1.0625 0.234375q-0.453125 0.234375 -0.78125 0.609375q-0.3125 0.375 -0.484375 0.859375q-0.171875 0.484375 -0.234375 0.984375l4.8125 0z" fill-rule="nonzero"/><path fill="#9fc5e8" d="m449.6919 822.0003l197.63782 0l0 52.0l-197.63782 0z" fill-rule="evenodd"/><path fill="#000000" d="m509.8107 849.5141q0.3125 0.375 0.765625 0.984375q0.453125 0.59375 0.9375 1.34375q0.484375 0.734375 0.9530945 1.53125q0.484375 0.796875 0.828125 1.546875l-1.9843445 0q-0.375 -0.703125 -0.8125 -1.4375q-0.4375 -0.734375 -0.890625 -1.390625q-0.4375 -0.65625 -0.875 -1.234375q-0.4375 -0.578125 -0.796875 -1.015625q-0.25 0.015625 -0.5 0.015625q-0.25 0 -0.515625 0l-1.609375 0l0 5.0625l-1.8125 0l0 -12.75q0.765625 -0.171875 1.703125 -0.234375q0.9375 -0.078125 1.71875 -0.078125q2.734375 0 4.15625 1.03125q1.4218445 1.03125 1.4218445 3.0625q0 1.28125 -0.6874695 2.203125q-0.671875 0.90625 -2.0 1.359375zm-2.734375 -6.0625q-1.15625 0 -1.765625 0.046875l0 4.875l1.28125 0q0.9375 0 1.671875 -0.09375q0.75 -0.09375 1.265625 -0.34375q0.515625 -0.265625 0.796875 -0.734375q0.28125 -0.484375 0.28125 -1.28125q0 -0.71875 -0.28125 -1.203125q-0.28125 -0.484375 -0.765625 -0.765625q-0.46875 -0.28125 -1.125 -0.390625q-0.640625 -0.109375 -1.359375 -0.109375zm11.328522 10.21875q0.609375 0 1.078125 -0.03125q0.484375 -0.03125 0.796875 -0.09375l0 -2.890625q-0.1875 -0.09375 -0.609375 -0.15625q-0.40625 -0.078125 -1.015625 -0.078125q-0.390625 0 -0.828125 0.0625q-0.4375 0.046875 -0.796875 0.234375q-0.359375 0.171875 -0.609375 0.484375q-0.234375 0.296875 -0.234375 0.8125q0 0.921875 0.59375 1.296875q0.59375 0.359375 1.625 0.359375zm-0.15625 -8.6875q1.046875 0 1.765625 0.265625q0.71875 0.265625 1.15625 0.765625q0.4375 0.5 0.625 1.1875q0.1875 0.671875 0.1875 1.484375l0 6.0625q-0.21875 0.046875 -0.625 0.109375q-0.40625 0.0625 -0.90625 0.109375q-0.5 0.0625 -1.09375 0.109375q-0.578125 0.046875 -1.15625 0.046875q-0.828125 0 -1.515625 -0.171875q-0.6875 -0.15625 -1.203125 -0.515625q-0.5 -0.375 -0.78125 -0.96875q-0.28125 -0.59375 -0.28125 -1.4375q0 -0.796875 0.328125 -1.375q0.328125 -0.578125 0.890625 -0.9375q0.5625 -0.359375 1.296875 -0.515625q0.75 -0.171875 1.578125 -0.171875q0.265625 0 0.53125 0.03125q0.28125 0.015625 0.53125 0.0625q0.265625 0.046875 0.4375 0.09375q0.1875 0.03125 0.265625 0.046875l0 -0.484375q0 -0.421875 -0.09375 -0.84375q-0.09375 -0.421875 -0.34375 -0.75q-0.234375 -0.328125 -0.65625 -0.515625q-0.40625 -0.203125 -1.078125 -0.203125q-0.859375 0 -1.515625 0.125q-0.640625 0.125 -0.953125 0.25l-0.203125 -1.4375q0.328125 -0.140625 1.109375 -0.28125q0.796875 -0.140625 1.703125 -0.140625zm10.394836 -4.546875q0.765625 0 1.3125 0.125q0.546875 0.109375 0.78125 0.203125l-0.328125 1.484375q-0.21875 -0.109375 -0.640625 -0.203125q-0.40625 -0.109375 -1.0 -0.109375q-1.203125 0 -1.6875 0.671875q-0.484375 0.65625 -0.484375 1.765625l0 0.84375l3.71875 0l0 1.453125l-3.71875 0l0 8.25l-1.734375 0l0 -10.578125q0 -1.859375 0.90625 -2.875q0.921875 -1.03125 2.875 -1.03125zm5.029419 4.78125l3.6875 0l0 1.453125l-3.6875 0l0 4.484375q0 0.71875 0.109375 1.203125q0.125 0.46875 0.34375 0.75q0.21875 0.265625 0.546875 0.375q0.34375 0.109375 0.796875 0.109375q0.78125 0 1.25 -0.171875q0.484375 -0.171875 0.671875 -0.25l0.328125 1.4375q-0.25 0.125 -0.90625 0.3125q-0.65625 0.203125 -1.5 0.203125q-0.984375 0 -1.625 -0.25q-0.640625 -0.25 -1.03125 -0.75q-0.390625 -0.515625 -0.5625 -1.25q-0.15625 -0.734375 -0.15625 -1.703125l0 -8.65625l1.734375 -0.296875l0 3.0zm10.309387 -3.21875l1.8125 0l0 12.921875l-1.8125 0l0 -12.921875zm4.9091797 3.5q0.59375 -0.15625 1.578125 -0.3125q0.984375 -0.171875 2.28125 -0.171875q1.15625 0 1.921875 0.328125q0.765625 0.328125 1.21875 0.921875q0.453125 0.578125 0.640625 1.40625q0.1875 0.8125 0.1875 1.796875l0 5.453125l-1.734375 0l0 -5.078125q0 -0.890625 -0.125 -1.515625q-0.125 -0.640625 -0.40625 -1.03125q-0.265625 -0.390625 -0.734375 -0.5625q-0.46875 -0.1875 -1.15625 -0.1875q-0.28125 0 -0.578125 0.015625q-0.296875 0.015625 -0.578125 0.046875q-0.265625 0.03125 -0.484375 0.078125q-0.203125 0.03125 -0.296875 0.046875l0 8.1875l-1.734375 0l0 -9.421875zm16.786804 8.453125q-0.234375 0.140625 -0.875 0.375q-0.640625 0.234375 -1.5 0.234375q-0.875 0 -1.65625 -0.28125q-0.765625 -0.28125 -1.34375 -0.859375q-0.578125 -0.59375 -0.921875 -1.46875q-0.328125 -0.875 -0.328125 -2.09375q0 -1.0625 0.3125 -1.9375q0.3125 -0.890625 0.921875 -1.53125q0.609375 -0.640625 1.484375 -1.0q0.875 -0.375 1.984375 -0.375q1.203125 0 2.109375 0.1875q0.90625 0.171875 1.53125 0.3125l0 8.65625q0 2.25 -1.15625 3.25q-1.15625 1.0 -3.515625 1.0q-0.90625 0 -1.71875 -0.15625q-0.8125 -0.140625 -1.40625 -0.34375l0.3125 -1.5q0.515625 0.203125 1.265625 0.359375q0.765625 0.15625 1.59375 0.15625q1.546875 0 2.21875 -0.625q0.6875 -0.609375 0.6875 -1.953125l0 -0.40625zm-0.015625 -7.203125q-0.265625 -0.078125 -0.703125 -0.140625q-0.4375 -0.0625 -1.1875 -0.0625q-1.40625 0 -2.15625 0.921875q-0.75 0.90625 -0.75 2.421875q0 0.828125 0.203125 1.4375q0.21875 0.59375 0.578125 0.984375q0.375 0.390625 0.84375 0.578125q0.484375 0.1875 0.984375 0.1875q0.6875 0 1.265625 -0.1875q0.578125 -0.203125 0.921875 -0.46875l0 -5.671875zm4.17395 3.34375q0 -1.296875 0.375 -2.25q0.375 -0.96875 0.984375 -1.59375q0.609375 -0.640625 1.40625 -0.953125q0.8125 -0.3125 1.65625 -0.3125q1.953125 0 3.0 1.21875q1.046875 1.21875 1.046875 3.71875q0 0.109375 0 0.296875q0 0.171875 -0.015625 0.3125l-6.640625 0q0.109375 1.515625 0.875 2.296875q0.765625 0.78125 2.390625 0.78125q0.90625 0 1.53125 -0.15625q0.625 -0.15625 0.9375 -0.296875l0.25 1.453125q-0.3125 0.15625 -1.109375 0.34375q-0.796875 0.1875 -1.796875 0.1875q-1.265625 0 -2.203125 -0.375q-0.921875 -0.390625 -1.515625 -1.0625q-0.59375 -0.671875 -0.890625 -1.59375q-0.28125 -0.921875 -0.28125 -2.015625zm6.65625 -0.953125q0.015625 -1.171875 -0.59375 -1.921875q-0.59375 -0.765625 -1.65625 -0.765625q-0.609375 0 -1.0625 0.234375q-0.453125 0.234375 -0.78125 0.609375q-0.3125 0.375 -0.484375 0.859375q-0.171875 0.484375 -0.234375 0.984375l4.8125 0zm6.569458 4.53125q1.0625 0 1.578125 -0.28125q0.515625 -0.28125 0.515625 -0.890625q0 -0.640625 -0.515625 -1.015625q-0.5 -0.375 -1.65625 -0.828125q-0.5625 -0.234375 -1.078125 -0.46875q-0.5 -0.234375 -0.875 -0.546875q-0.375 -0.3125 -0.609375 -0.765625q-0.21875 -0.453125 -0.21875 -1.09375q0 -1.296875 0.953125 -2.046875q0.953125 -0.75 2.59375 -0.75q0.40625 0 0.8125 0.046875q0.421875 0.046875 0.765625 0.109375q0.359375 0.0625 0.625 0.140625q0.28125 0.0625 0.4375 0.125l-0.328125 1.5q-0.28125 -0.15625 -0.875 -0.3125q-0.59375 -0.15625 -1.4375 -0.15625q-0.71875 0 -1.265625 0.296875q-0.546875 0.28125 -0.546875 0.890625q0 0.3125 0.125 0.5625q0.125 0.234375 0.375 0.4375q0.25 0.203125 0.625 0.375q0.375 0.15625 0.890625 0.34375q0.6875 0.265625 1.234375 0.515625q0.546875 0.25 0.921875 0.59375q0.390625 0.328125 0.59375 0.8125q0.203125 0.46875 0.203125 1.15625q0 1.34375 -1.0 2.03125q-1.0 0.6875 -2.84375 0.6875q-1.28125 0 -2.015625 -0.21875q-0.734375 -0.203125 -0.984375 -0.3125l0.3125 -1.5q0.296875 0.109375 0.953125 0.34375q0.65625 0.21875 1.734375 0.21875zm7.6801147 -8.453125l3.6875 0l0 1.453125l-3.6875 0l0 4.484375q0 0.71875 0.109375 1.203125q0.125 0.46875 0.34375 0.75q0.21875 0.265625 0.546875 0.375q0.34375 0.109375 0.796875 0.109375q0.78125 0 1.25 -0.171875q0.484375 -0.171875 0.671875 -0.25l0.328125 1.4375q-0.25 0.125 -0.90625 0.3125q-0.65625 0.203125 -1.5 0.203125q-0.984375 0 -1.625 -0.25q-0.640625 -0.25 -1.03125 -0.75q-0.390625 -0.515625 -0.5625 -1.25q-0.15625 -0.734375 -0.15625 -1.703125l0 -8.65625l1.734375 -0.296875l0 3.0z" fill-rule="nonzero"/><path fill="#000000" fill-opacity="0.0" d="m177.89401 310.01346l0 35.46457" fill-rule="evenodd"/><path stroke="#000000" stroke-width="1.0" stroke-linejoin="round" stroke-linecap="butt" d="m177.89401 310.01346l0 35.46457" fill-rule="evenodd"/><path fill="#9fc5e8" d="m388.9029 933.38055l0 0c0 9.071411 29.415222 16.425232 65.700775 16.425232c36.285553 0 65.700775 -7.353821 65.700775 -16.425232l0 119.27557c0 9.071411 -29.415222 16.425293 -65.700775 16.425293c-36.285553 0 -65.700775 -7.353882 -65.700775 -16.425293z" fill-rule="evenodd"/><path fill="#c5dcf1" d="m388.9029 933.38055l0 0c0 -9.07135 29.415222 -16.42517 65.700775 -16.42517c36.285553 0 65.700775 7.353821 65.700775 16.42517l0 0c0 9.071411 -29.415222 16.425232 -65.700775 16.425232c-36.285553 0 -65.700775 -7.353821 -65.700775 -16.425232z" fill-rule="evenodd"/><path fill="#000000" fill-opacity="0.0" d="m520.30444 933.38055l0 0c0 9.071411 -29.415222 16.425232 -65.700775 16.425232c-36.285553 0 -65.700775 -7.353821 -65.700775 -16.425232l0 0c0 -9.07135 29.415222 -16.42517 65.700775 -16.42517c36.285553 0 65.700775 7.353821 65.700775 16.42517l0 119.27557c0 9.071411 -29.415222 16.425293 -65.700775 16.425293c-36.285553 0 -65.700775 -7.353882 -65.700775 -16.425293l0 -119.27557" fill-rule="evenodd"/><path fill="#000000" d="m445.81915 997.15094q-0.40625 -0.6875 -0.9375 -1.546875q-0.53125 -0.859375 -1.15625 -1.78125q-0.609375 -0.921875 -1.28125 -1.875q-0.65625 -0.953125 -1.3125 -1.828125q-0.65625 -0.890625 -1.265625 -1.671875q-0.609375 -0.796875 -1.140625 -1.390625l0 10.09375l-1.765625 0l0 -12.921875l1.4375 0q0.875 0.921875 1.859375 2.171875q1.0 1.234375 1.984375 2.546875q0.984375 1.3125 1.84375 2.59375q0.875 1.265625 1.46875 2.25l0 -9.5625l1.78125 0l0 12.921875l-1.515625 0zm4.0661316 -4.828125q0 -1.296875 0.375 -2.25q0.375 -0.96875 0.984375 -1.59375q0.609375 -0.640625 1.40625 -0.953125q0.8125 -0.3125 1.65625 -0.3125q1.953125 0 3.0 1.21875q1.046875 1.21875 1.046875 3.71875q0 0.109375 0 0.296875q0 0.171875 -0.015625 0.3125l-6.640625 0q0.109375 1.515625 0.875 2.296875q0.765625 0.78125 2.390625 0.78125q0.90625 0 1.53125 -0.15625q0.625 -0.15625 0.9375 -0.296875l0.25 1.453125q-0.3125 0.15625 -1.109375 0.34375q-0.796875 0.1875 -1.796875 0.1875q-1.265625 0 -2.203125 -0.375q-0.921875 -0.390625 -1.515625 -1.0625q-0.59375 -0.671875 -0.890625 -1.59375q-0.28125 -0.921875 -0.28125 -2.015625zm6.65625 -0.953125q0.015625 -1.171875 -0.59375 -1.921875q-0.59375 -0.765625 -1.65625 -0.765625q-0.609375 0 -1.0625 0.234375q-0.453125 0.234375 -0.78125 0.609375q-0.3125 0.375 -0.484375 0.859375q-0.171875 0.484375 -0.234375 0.984375l4.8125 0zm12.241364 5.78125q-0.515625 -1.34375 -1.109375 -3.0625q-0.59375 -1.734375 -1.078125 -3.59375q-0.484375 1.859375 -1.0625 3.59375q-0.578125 1.71875 -1.09375 3.0625l-1.515625 0q-0.859375 -1.921875 -1.6875 -4.375q-0.8125 -2.46875 -1.546875 -5.328125l1.875 0q0.1875 0.875 0.4375 1.90625q0.265625 1.03125 0.546875 2.0625q0.296875 1.015625 0.609375 1.96875q0.328125 0.953125 0.609375 1.65625q0.3125 -0.875 0.609375 -1.84375q0.3125 -0.984375 0.59375 -1.984375q0.28125 -1.0 0.53125 -1.953125q0.265625 -0.96875 0.4375 -1.8125l1.4375 0q0.171875 0.84375 0.40625 1.8125q0.25 0.953125 0.53125 1.953125q0.28125 1.0 0.578125 1.984375q0.3125 0.96875 0.640625 1.84375q0.28125 -0.703125 0.578125 -1.65625q0.3125 -0.953125 0.609375 -1.96875q0.296875 -1.03125 0.5625 -2.0625q0.265625 -1.03125 0.453125 -1.90625l1.78125 0q-0.71875 2.859375 -1.546875 5.328125q-0.8125 2.453125 -1.671875 4.375l-1.515625 0z" fill-rule="nonzero"/><path fill="#000000" d="m444.01752 1017.86975q2.828125 0 2.828125 -1.953125q0 -0.59375 -0.25 -1.015625q-0.25 -0.421875 -0.6875 -0.71875q-0.421875 -0.3125 -0.96875 -0.53125q-0.546875 -0.234375 -1.171875 -0.453125q-0.703125 -0.234375 -1.34375 -0.546875q-0.625 -0.3125 -1.09375 -0.734375q-0.46875 -0.421875 -0.734375 -1.0q-0.265625 -0.578125 -0.265625 -1.390625q0 -1.703125 1.15625 -2.65625q1.15625 -0.953125 3.1875 -0.953125q1.171875 0 2.125 0.265625q0.96875 0.25 1.421875 0.546875l-0.578125 1.46875q-0.40625 -0.234375 -1.1875 -0.46875q-0.765625 -0.234375 -1.78125 -0.234375q-0.53125 0 -0.984375 0.109375q-0.4375 0.109375 -0.78125 0.34375q-0.328125 0.21875 -0.53125 0.5625q-0.1875 0.34375 -0.1875 0.8125q0 0.515625 0.203125 0.875q0.203125 0.359375 0.578125 0.625q0.375 0.265625 0.859375 0.5q0.5 0.21875 1.09375 0.4375q0.84375 0.34375 1.546875 0.6875q0.703125 0.328125 1.203125 0.796875q0.515625 0.453125 0.796875 1.109375q0.28125 0.640625 0.28125 1.546875q0 1.703125 -1.25 2.625q-1.234375 0.90625 -3.484375 0.90625q-0.765625 0 -1.40625 -0.109375q-0.640625 -0.09375 -1.15625 -0.234375q-0.5 -0.140625 -0.859375 -0.296875q-0.359375 -0.15625 -0.578125 -0.28125l0.546875 -1.484375q0.421875 0.234375 1.296875 0.546875q0.890625 0.296875 2.15625 0.296875zm9.92514 0q2.828125 0 2.828125 -1.953125q0 -0.59375 -0.25 -1.015625q-0.25 -0.421875 -0.6875 -0.71875q-0.421875 -0.3125 -0.96875 -0.53125q-0.546875 -0.234375 -1.171875 -0.453125q-0.703125 -0.234375 -1.34375 -0.546875q-0.625 -0.3125 -1.09375 -0.734375q-0.46875 -0.421875 -0.734375 -1.0q-0.265625 -0.578125 -0.265625 -1.390625q0 -1.703125 1.15625 -2.65625q1.15625 -0.953125 3.1875 -0.953125q1.171875 0 2.125 0.265625q0.96875 0.25 1.421875 0.546875l-0.578125 1.46875q-0.40625 -0.234375 -1.1875 -0.46875q-0.765625 -0.234375 -1.78125 -0.234375q-0.53125 0 -0.984375 0.109375q-0.4375 0.109375 -0.78125 0.34375q-0.328125 0.21875 -0.53125 0.5625q-0.1875 0.34375 -0.1875 0.8125q0 0.515625 0.203125 0.875q0.203125 0.359375 0.578125 0.625q0.375 0.265625 0.859375 0.5q0.5 0.21875 1.09375 0.4375q0.84375 0.34375 1.546875 0.6875q0.703125 0.328125 1.203125 0.796875q0.515625 0.453125 0.796875 1.109375q0.28125 0.640625 0.28125 1.546875q0 1.703125 -1.25 2.625q-1.234375 0.90625 -3.484375 0.90625q-0.765625 0 -1.40625 -0.109375q-0.640625 -0.09375 -1.15625 -0.234375q-0.5 -0.140625 -0.859375 -0.296875q-0.359375 -0.15625 -0.578125 -0.28125l0.546875 -1.484375q0.421875 0.234375 1.296875 0.546875q0.890625 0.296875 2.15625 0.296875zm15.565735 -11.640625l0 1.5625l-4.078125 0l0 11.359375l-1.8125 0l0 -11.359375l-4.0625 0l0 -1.5625l9.953125 0z" fill-rule="nonzero"/><path fill="#9fc5e8" d="m483.48163 632.8478l0 0c0 9.07135 29.415222 16.42517 65.700806 16.42517c36.285522 0 65.700745 -7.353821 65.700745 -16.42517l0 119.27557c0 9.071411 -29.415222 16.425232 -65.700745 16.425232c-36.285583 0 -65.700806 -7.353821 -65.700806 -16.425232z" fill-rule="evenodd"/><path fill="#c5dcf1" d="m483.48163 632.8478l0 0c0 -9.071411 29.415222 -16.425232 65.700806 -16.425232c36.285522 0 65.700745 7.353821 65.700745 16.425232l0 0c0 9.07135 -29.415222 16.42517 -65.700745 16.42517c-36.285583 0 -65.700806 -7.353821 -65.700806 -16.42517z" fill-rule="evenodd"/><path fill="#000000" fill-opacity="0.0" d="m614.8832 632.8478l0 0c0 9.07135 -29.415222 16.42517 -65.700745 16.42517c-36.285583 0 -65.700806 -7.353821 -65.700806 -16.42517l0 0c0 -9.071411 29.415222 -16.425232 65.700806 -16.425232c36.285522 0 65.700745 7.353821 65.700745 16.425232l0 119.27557c0 9.071411 -29.415222 16.425232 -65.700745 16.425232c-36.285583 0 -65.700806 -7.353821 -65.700806 -16.425232l0 -119.27557" fill-rule="evenodd"/><path fill="#000000" d="m540.3979 696.61816q-0.40625 -0.6875 -0.9375 -1.546875q-0.53125 -0.859375 -1.15625 -1.78125q-0.609375 -0.921875 -1.28125 -1.875q-0.65625 -0.953125 -1.3125 -1.828125q-0.65625 -0.890625 -1.265625 -1.671875q-0.609375 -0.796875 -1.140625 -1.390625l0 10.09375l-1.765625 0l0 -12.921875l1.4375 0q0.875 0.921875 1.859375 2.171875q1.0 1.234375 1.984375 2.546875q0.984375 1.3125 1.84375 2.59375q0.875 1.265625 1.46875 2.25l0 -9.5625l1.78125 0l0 12.921875l-1.515625 0zm4.066162 -4.828125q0 -1.296875 0.375 -2.25q0.375 -0.96875 0.984375 -1.59375q0.609375 -0.640625 1.40625 -0.953125q0.8125 -0.3125 1.65625 -0.3125q1.953125 0 3.0 1.21875q1.046875 1.21875 1.046875 3.71875q0 0.109375 0 0.296875q0 0.171875 -0.015625 0.3125l-6.640625 0q0.109375 1.515625 0.875 2.296875q0.765625 0.78125 2.390625 0.78125q0.90625 0 1.53125 -0.15625q0.625 -0.15625 0.9375 -0.296875l0.25 1.453125q-0.3125 0.15625 -1.109375 0.34375q-0.796875 0.1875 -1.796875 0.1875q-1.265625 0 -2.203125 -0.375q-0.921875 -0.390625 -1.515625 -1.0625q-0.59375 -0.671875 -0.890625 -1.59375q-0.28125 -0.921875 -0.28125 -2.015625zm6.65625 -0.953125q0.015625 -1.171875 -0.59375 -1.921875q-0.59375 -0.765625 -1.65625 -0.765625q-0.609375 0 -1.0625 0.234375q-0.453125 0.234375 -0.78125 0.609375q-0.3125 0.375 -0.484375 0.859375q-0.171875 0.484375 -0.234375 0.984375l4.8125 0zm12.241333 5.78125q-0.515625 -1.34375 -1.109375 -3.0625q-0.59375 -1.734375 -1.078125 -3.59375q-0.484375 1.859375 -1.0625 3.59375q-0.578125 1.71875 -1.09375 3.0625l-1.515625 0q-0.859375 -1.921875 -1.6875 -4.375q-0.8125 -2.46875 -1.546875 -5.328125l1.875 0q0.1875 0.875 0.4375 1.90625q0.265625 1.03125 0.546875 2.0625q0.296875 1.015625 0.609375 1.96875q0.328125 0.953125 0.609375 1.65625q0.3125 -0.875 0.609375 -1.84375q0.3125 -0.984375 0.59375 -1.984375q0.28125 -1.0 0.53125 -1.953125q0.265625 -0.96875 0.4375 -1.8125l1.4375 0q0.171875 0.84375 0.40625 1.8125q0.25 0.953125 0.53125 1.953125q0.28125 1.0 0.578125 1.984375q0.3125 0.96875 0.640625 1.84375q0.28125 -0.703125 0.578125 -1.65625q0.3125 -0.953125 0.609375 -1.96875q0.296875 -1.03125 0.5625 -2.0625q0.265625 -1.03125 0.453125 -1.90625l1.78125 0q-0.71875 2.859375 -1.546875 5.328125q-0.8125 2.453125 -1.671875 4.375l-1.515625 0z" fill-rule="nonzero"/><path fill="#000000" d="m538.59625 717.3369q2.828125 0 2.828125 -1.953125q0 -0.59375 -0.25 -1.015625q-0.25 -0.421875 -0.6875 -0.71875q-0.421875 -0.3125 -0.96875 -0.53125q-0.546875 -0.234375 -1.171875 -0.453125q-0.703125 -0.234375 -1.34375 -0.546875q-0.625 -0.3125 -1.09375 -0.734375q-0.46875 -0.421875 -0.734375 -1.0q-0.265625 -0.578125 -0.265625 -1.390625q0 -1.703125 1.15625 -2.65625q1.15625 -0.953125 3.1875 -0.953125q1.171875 0 2.125 0.265625q0.96875 0.25 1.421875 0.546875l-0.578125 1.46875q-0.40625 -0.234375 -1.1875 -0.46875q-0.765625 -0.234375 -1.78125 -0.234375q-0.53125 0 -0.984375 0.109375q-0.4375 0.109375 -0.78125 0.34375q-0.328125 0.21875 -0.53125 0.5625q-0.1875 0.34375 -0.1875 0.8125q0 0.515625 0.203125 0.875q0.203125 0.359375 0.578125 0.625q0.375 0.265625 0.859375 0.5q0.5 0.21875 1.09375 0.4375q0.84375 0.34375 1.546875 0.6875q0.703125 0.328125 1.203125 0.796875q0.515625 0.453125 0.796875 1.109375q0.28125 0.640625 0.28125 1.546875q0 1.703125 -1.25 2.625q-1.234375 0.90625 -3.484375 0.90625q-0.765625 0 -1.40625 -0.109375q-0.640625 -0.09375 -1.15625 -0.234375q-0.5 -0.140625 -0.859375 -0.296875q-0.359375 -0.15625 -0.578125 -0.28125l0.546875 -1.484375q0.421875 0.234375 1.296875 0.546875q0.890625 0.296875 2.15625 0.296875zm9.92511 0q2.828125 0 2.828125 -1.953125q0 -0.59375 -0.25 -1.015625q-0.25 -0.421875 -0.6875 -0.71875q-0.421875 -0.3125 -0.96875 -0.53125q-0.546875 -0.234375 -1.171875 -0.453125q-0.703125 -0.234375 -1.34375 -0.546875q-0.625 -0.3125 -1.09375 -0.734375q-0.46875 -0.421875 -0.734375 -1.0q-0.265625 -0.578125 -0.265625 -1.390625q0 -1.703125 1.15625 -2.65625q1.15625 -0.953125 3.1875 -0.953125q1.171875 0 2.125 0.265625q0.96875 0.25 1.421875 0.546875l-0.578125 1.46875q-0.40625 -0.234375 -1.1875 -0.46875q-0.765625 -0.234375 -1.78125 -0.234375q-0.53125 0 -0.984375 0.109375q-0.4375 0.109375 -0.78125 0.34375q-0.328125 0.21875 -0.53125 0.5625q-0.1875 0.34375 -0.1875 0.8125q0 0.515625 0.203125 0.875q0.203125 0.359375 0.578125 0.625q0.375 0.265625 0.859375 0.5q0.5 0.21875 1.09375 0.4375q0.84375 0.34375 1.546875 0.6875q0.703125 0.328125 1.203125 0.796875q0.515625 0.453125 0.796875 1.109375q0.28125 0.640625 0.28125 1.546875q0 1.703125 -1.25 2.625q-1.234375 0.90625 -3.484375 0.90625q-0.765625 0 -1.40625 -0.109375q-0.640625 -0.09375 -1.15625 -0.234375q-0.5 -0.140625 -0.859375 -0.296875q-0.359375 -0.15625 -0.578125 -0.28125l0.546875 -1.484375q0.421875 0.234375 1.296875 0.546875q0.890625 0.296875 2.15625 0.296875zm15.565796 -11.640625l0 1.5625l-4.078125 0l0 11.359375l-1.8125 0l0 -11.359375l-4.0625 0l0 -1.5625l9.953125 0z" fill-rule="nonzero"/><path fill="#9fc5e8" d="m578.05774 933.38055l0 0c0 9.071411 29.415222 16.425232 65.700806 16.425232c36.285522 0 65.700745 -7.353821 65.700745 -16.425232l0 119.27557c0 9.071411 -29.415222 16.425293 -65.700745 16.425293c-36.285583 0 -65.700806 -7.353882 -65.700806 -16.425293z" fill-rule="evenodd"/><path fill="#c5dcf1" d="m578.05774 933.38055l0 0c0 -9.07135 29.415222 -16.42517 65.700806 -16.42517c36.285522 0 65.700745 7.353821 65.700745 16.42517l0 0c0 9.071411 -29.415222 16.425232 -65.700745 16.425232c-36.285583 0 -65.700806 -7.353821 -65.700806 -16.425232z" fill-rule="evenodd"/><path fill="#000000" fill-opacity="0.0" d="m709.4593 933.38055l0 0c0 9.071411 -29.415222 16.425232 -65.700745 16.425232c-36.285583 0 -65.700806 -7.353821 -65.700806 -16.425232l0 0c0 -9.07135 29.415222 -16.42517 65.700806 -16.42517c36.285522 0 65.700745 7.353821 65.700745 16.42517l0 119.27557c0 9.071411 -29.415222 16.425293 -65.700745 16.425293c-36.285583 0 -65.700806 -7.353882 -65.700806 -16.425293l0 -119.27557" fill-rule="evenodd"/><path fill="#000000" d="m634.974 997.15094q-0.40625 -0.6875 -0.9375 -1.546875q-0.53125 -0.859375 -1.15625 -1.78125q-0.609375 -0.921875 -1.28125 -1.875q-0.65625 -0.953125 -1.3125 -1.828125q-0.65625 -0.890625 -1.265625 -1.671875q-0.609375 -0.796875 -1.140625 -1.390625l0 10.09375l-1.765625 0l0 -12.921875l1.4375 0q0.875 0.921875 1.859375 2.171875q1.0 1.234375 1.984375 2.546875q0.984375 1.3125 1.84375 2.59375q0.875 1.265625 1.46875 2.25l0 -9.5625l1.78125 0l0 12.921875l-1.515625 0zm4.066162 -4.828125q0 -1.296875 0.375 -2.25q0.375 -0.96875 0.984375 -1.59375q0.609375 -0.640625 1.40625 -0.953125q0.8125 -0.3125 1.65625 -0.3125q1.953125 0 3.0 1.21875q1.046875 1.21875 1.046875 3.71875q0 0.109375 0 0.296875q0 0.171875 -0.015625 0.3125l-6.640625 0q0.109375 1.515625 0.875 2.296875q0.765625 0.78125 2.390625 0.78125q0.90625 0 1.53125 -0.15625q0.625 -0.15625 0.9375 -0.296875l0.25 1.453125q-0.3125 0.15625 -1.109375 0.34375q-0.796875 0.1875 -1.796875 0.1875q-1.265625 0 -2.203125 -0.375q-0.921875 -0.390625 -1.515625 -1.0625q-0.59375 -0.671875 -0.890625 -1.59375q-0.28125 -0.921875 -0.28125 -2.015625zm6.65625 -0.953125q0.015625 -1.171875 -0.59375 -1.921875q-0.59375 -0.765625 -1.65625 -0.765625q-0.609375 0 -1.0625 0.234375q-0.453125 0.234375 -0.78125 0.609375q-0.3125 0.375 -0.484375 0.859375q-0.171875 0.484375 -0.234375 0.984375l4.8125 0zm12.241333 5.78125q-0.515625 -1.34375 -1.109375 -3.0625q-0.59375 -1.734375 -1.078125 -3.59375q-0.484375 1.859375 -1.0625 3.59375q-0.578125 1.71875 -1.09375 3.0625l-1.515625 0q-0.859375 -1.921875 -1.6875 -4.375q-0.8125 -2.46875 -1.546875 -5.328125l1.875 0q0.1875 0.875 0.4375 1.90625q0.265625 1.03125 0.546875 2.0625q0.296875 1.015625 0.609375 1.96875q0.328125 0.953125 0.609375 1.65625q0.3125 -0.875 0.609375 -1.84375q0.3125 -0.984375 0.59375 -1.984375q0.28125 -1.0 0.53125 -1.953125q0.265625 -0.96875 0.4375 -1.8125l1.4375 0q0.171875 0.84375 0.40625 1.8125q0.25 0.953125 0.53125 1.953125q0.28125 1.0 0.578125 1.984375q0.3125 0.96875 0.640625 1.84375q0.28125 -0.703125 0.578125 -1.65625q0.3125 -0.953125 0.609375 -1.96875q0.296875 -1.03125 0.5625 -2.0625q0.265625 -1.03125 0.453125 -1.90625l1.78125 0q-0.71875 2.859375 -1.546875 5.328125q-0.8125 2.453125 -1.671875 4.375l-1.515625 0z" fill-rule="nonzero"/><path fill="#000000" d="m633.17236 1017.86975q2.828125 0 2.828125 -1.953125q0 -0.59375 -0.25 -1.015625q-0.25 -0.421875 -0.6875 -0.71875q-0.421875 -0.3125 -0.96875 -0.53125q-0.546875 -0.234375 -1.171875 -0.453125q-0.703125 -0.234375 -1.34375 -0.546875q-0.625 -0.3125 -1.09375 -0.734375q-0.46875 -0.421875 -0.734375 -1.0q-0.265625 -0.578125 -0.265625 -1.390625q0 -1.703125 1.15625 -2.65625q1.15625 -0.953125 3.1875 -0.953125q1.171875 0 2.125 0.265625q0.96875 0.25 1.421875 0.546875l-0.578125 1.46875q-0.40625 -0.234375 -1.1875 -0.46875q-0.765625 -0.234375 -1.78125 -0.234375q-0.53125 0 -0.984375 0.109375q-0.4375 0.109375 -0.78125 0.34375q-0.328125 0.21875 -0.53125 0.5625q-0.1875 0.34375 -0.1875 0.8125q0 0.515625 0.203125 0.875q0.203125 0.359375 0.578125 0.625q0.375 0.265625 0.859375 0.5q0.5 0.21875 1.09375 0.4375q0.84375 0.34375 1.546875 0.6875q0.703125 0.328125 1.203125 0.796875q0.515625 0.453125 0.796875 1.109375q0.28125 0.640625 0.28125 1.546875q0 1.703125 -1.25 2.625q-1.234375 0.90625 -3.484375 0.90625q-0.765625 0 -1.40625 -0.109375q-0.640625 -0.09375 -1.15625 -0.234375q-0.5 -0.140625 -0.859375 -0.296875q-0.359375 -0.15625 -0.578125 -0.28125l0.546875 -1.484375q0.421875 0.234375 1.296875 0.546875q0.890625 0.296875 2.15625 0.296875zm9.92511 0q2.828125 0 2.828125 -1.953125q0 -0.59375 -0.25 -1.015625q-0.25 -0.421875 -0.6875 -0.71875q-0.421875 -0.3125 -0.96875 -0.53125q-0.546875 -0.234375 -1.171875 -0.453125q-0.703125 -0.234375 -1.34375 -0.546875q-0.625 -0.3125 -1.09375 -0.734375q-0.46875 -0.421875 -0.734375 -1.0q-0.265625 -0.578125 -0.265625 -1.390625q0 -1.703125 1.15625 -2.65625q1.15625 -0.953125 3.1875 -0.953125q1.171875 0 2.125 0.265625q0.96875 0.25 1.421875 0.546875l-0.578125 1.46875q-0.40625 -0.234375 -1.1875 -0.46875q-0.765625 -0.234375 -1.78125 -0.234375q-0.53125 0 -0.984375 0.109375q-0.4375 0.109375 -0.78125 0.34375q-0.328125 0.21875 -0.53125 0.5625q-0.1875 0.34375 -0.1875 0.8125q0 0.515625 0.203125 0.875q0.203125 0.359375 0.578125 0.625q0.375 0.265625 0.859375 0.5q0.5 0.21875 1.09375 0.4375q0.84375 0.34375 1.546875 0.6875q0.703125 0.328125 1.203125 0.796875q0.515625 0.453125 0.796875 1.109375q0.28125 0.640625 0.28125 1.546875q0 1.703125 -1.25 2.625q-1.234375 0.90625 -3.484375 0.90625q-0.765625 0 -1.40625 -0.109375q-0.640625 -0.09375 -1.15625 -0.234375q-0.5 -0.140625 -0.859375 -0.296875q-0.359375 -0.15625 -0.578125 -0.28125l0.546875 -1.484375q0.421875 0.234375 1.296875 0.546875q0.890625 0.296875 2.15625 0.296875zm15.565796 -11.640625l0 1.5625l-4.078125 0l0 11.359375l-1.8125 0l0 -11.359375l-4.0625 0l0 -1.5625l9.953125 0z" fill-rule="nonzero"/><path fill="#000000" fill-opacity="0.0" d="m494.00525 874.02625l-39.40158 42.92914" fill-rule="evenodd"/><path stroke="#000000" stroke-width="1.0" stroke-linejoin="round" stroke-linecap="butt" d="m494.00525 874.02625l-39.40158 42.92914" fill-rule="evenodd"/><path fill="#000000" fill-opacity="0.0" d="m594.3097 873.99475l49.448853 42.960632" fill-rule="evenodd"/><path stroke="#000000" stroke-width="1.0" stroke-linejoin="round" stroke-linecap="butt" d="m594.3097 873.99475l49.448853 42.960632" fill-rule="evenodd"/><path fill="#d9ead3" d="m79.07511 458.94257l0 0c0 -14.359375 44.24273 -26.0 98.8189 -26.0l0 0c54.57617 0 98.81891 11.640625 98.81891 26.0l0 0c0 14.3594055 -44.242737 26.0 -98.81891 26.0l0 0c-54.57617 0 -98.8189 -11.6405945 -98.8189 -26.0z" fill-rule="evenodd"/><path fill="#000000" d="m161.54591 466.14383q-1.265625 0 -2.203125 -0.390625q-0.9375 -0.390625 -1.53125 -1.0625q-0.59375 -0.6875 -0.890625 -1.625q-0.28125 -0.9375 -0.28125 -2.015625l0 -8.109375l1.8125 0l0 7.90625q0 1.9375 0.84375 2.8125q0.859375 0.875 2.25 0.875q0.6875 0 1.25 -0.203125q0.578125 -0.21875 0.984375 -0.671875q0.40625 -0.453125 0.625 -1.140625q0.234375 -0.703125 0.234375 -1.671875l0 -7.90625l1.8125 0l0 8.109375q0 1.078125 -0.296875 2.015625q-0.28125 0.9375 -0.890625 1.625q-0.609375 0.671875 -1.53125 1.0625q-0.921875 0.390625 -2.1875 0.390625zm7.9136353 -9.703125q0.59375 -0.15625 1.578125 -0.3125q0.984375 -0.171875 2.28125 -0.171875q1.15625 0 1.921875 0.328125q0.765625 0.328125 1.21875 0.921875q0.453125 0.578125 0.640625 1.40625q0.1875 0.8125 0.1875 1.796875l0 5.453125l-1.734375 0l0 -5.078125q0 -0.890625 -0.125 -1.515625q-0.125 -0.640625 -0.40625 -1.03125q-0.265625 -0.390625 -0.734375 -0.5625q-0.46875 -0.1875 -1.15625 -0.1875q-0.28125 0 -0.578125 0.015625q-0.296875 0.015625 -0.578125 0.046875q-0.265625 0.03125 -0.484375 0.078125q-0.203125 0.03125 -0.296875 0.046875l0 8.1875l-1.734375 0l0 -9.421875zm16.97432 1.765625q-0.328125 -0.25 -0.921875 -0.484375q-0.59375 -0.25 -1.296875 -0.25q-0.75 0 -1.28125 0.265625q-0.53125 0.265625 -0.875 0.75q-0.328125 0.46875 -0.484375 1.125q-0.140625 0.65625 -0.140625 1.40625q0 1.6875 0.828125 2.609375q0.84375 0.921875 2.25 0.921875q0.703125 0 1.171875 -0.0625q0.484375 -0.0625 0.75 -0.140625l0 -6.140625zm0 -6.515625l1.734375 -0.3125l0 14.203125q-0.59375 0.171875 -1.53125 0.328125q-0.9375 0.171875 -2.140625 0.171875q-1.125 0 -2.03125 -0.34375q-0.890625 -0.359375 -1.53125 -1.015625q-0.625 -0.65625 -0.96875 -1.59375q-0.34375 -0.9375 -0.34375 -2.109375q0 -1.125 0.28125 -2.046875q0.296875 -0.9375 0.859375 -1.609375q0.5625 -0.671875 1.359375 -1.046875q0.8125 -0.375 1.859375 -0.375q0.84375 0 1.484375 0.21875q0.640625 0.21875 0.96875 0.4375l0 -4.90625zm13.285416 9.328125q0 1.15625 -0.34375 2.09375q-0.328125 0.921875 -0.9375 1.59375q-0.609375 0.671875 -1.453125 1.046875q-0.828125 0.359375 -1.828125 0.359375q-0.984375 0 -1.828125 -0.359375q-0.84375 -0.375 -1.453125 -1.046875q-0.59375 -0.671875 -0.9375 -1.59375q-0.328125 -0.9375 -0.328125 -2.09375q0 -1.140625 0.328125 -2.078125q0.34375 -0.953125 0.9375 -1.625q0.609375 -0.671875 1.453125 -1.03125q0.84375 -0.359375 1.828125 -0.359375q1.0 0 1.828125 0.359375q0.84375 0.359375 1.453125 1.03125q0.609375 0.671875 0.9375 1.625q0.34375 0.9375 0.34375 2.078125zm-1.8125 0q0 -1.65625 -0.75 -2.609375q-0.734375 -0.953125 -2.0 -0.953125q-1.265625 0 -2.0 0.953125q-0.734375 0.953125 -0.734375 2.609375q0 1.640625 0.734375 2.609375q0.734375 0.953125 2.0 0.953125q1.265625 0 2.0 -0.953125q0.75 -0.96875 0.75 -2.609375z" fill-rule="nonzero"/><path fill="#000000" fill-opacity="0.0" d="m177.89401 432.94257l0 -35.46454" fill-rule="evenodd"/><path stroke="#000000" stroke-width="1.0" stroke-linejoin="round" stroke-linecap="butt" d="m177.89401 432.94257l0 -35.46454" fill-rule="evenodd"/><path fill="#cc4125" d="m77.353325 520.40717l197.63779 0l0 52.0l-197.63779 0z" fill-rule="evenodd"/><path fill="#000000" d="m143.03432 529.4053l1.8125 0l0 12.921875l-1.8125 0l0 -12.921875zm4.9091644 3.5q0.59375 -0.15625 1.578125 -0.3125q0.984375 -0.171875 2.28125 -0.171875q1.15625 0 1.921875 0.328125q0.765625 0.328125 1.21875 0.921875q0.453125 0.578125 0.640625 1.40625q0.1875 0.8125 0.1875 1.796875l0 5.453125l-1.734375 0l0 -5.078125q0 -0.890625 -0.125 -1.515625q-0.125 -0.640625 -0.40625 -1.03125q-0.265625 -0.390625 -0.734375 -0.5625q-0.46875 -0.1875 -1.15625 -0.1875q-0.28125 0 -0.578125 0.015625q-0.296875 0.015625 -0.578125 0.046875q-0.265625 0.03125 -0.484375 0.078125q-0.203125 0.03125 -0.296875 0.046875l0 8.1875l-1.734375 0l0 -9.421875zm16.78682 8.453125q-0.234375 0.140625 -0.875 0.375q-0.640625 0.234375 -1.5 0.234375q-0.875 0 -1.65625 -0.28125q-0.765625 -0.28125 -1.34375 -0.859375q-0.578125 -0.59375 -0.921875 -1.46875q-0.328125 -0.875 -0.328125 -2.09375q0 -1.0625 0.3125 -1.9375q0.3125 -0.890625 0.921875 -1.53125q0.609375 -0.640625 1.484375 -1.0q0.875 -0.375 1.984375 -0.375q1.203125 0 2.109375 0.1875q0.90625 0.171875 1.53125 0.3125l0 8.65625q0 2.25 -1.15625 3.25q-1.15625 1.0 -3.515625 1.0q-0.90625 0 -1.71875 -0.15625q-0.8125 -0.140625 -1.40625 -0.34375l0.3125 -1.5q0.515625 0.203125 1.265625 0.359375q0.765625 0.15625 1.59375 0.15625q1.546875 0 2.21875 -0.625q0.6875 -0.609375 0.6875 -1.953125l0 -0.40625zm-0.015625 -7.203125q-0.265625 -0.078125 -0.703125 -0.140625q-0.4375 -0.0625 -1.1875 -0.0625q-1.40625 0 -2.15625 0.921875q-0.75 0.90625 -0.75 2.421875q0 0.828125 0.203125 1.4375q0.21875 0.59375 0.578125 0.984375q0.375 0.390625 0.84375 0.578125q0.484375 0.1875 0.984375 0.1875q0.6875 0 1.265625 -0.1875q0.578125 -0.203125 0.921875 -0.46875l0 -5.671875zm4.173935 3.34375q0 -1.296875 0.375 -2.25q0.375 -0.96875 0.984375 -1.59375q0.609375 -0.640625 1.40625 -0.953125q0.8125 -0.3125 1.65625 -0.3125q1.953125 0 3.0 1.21875q1.046875 1.21875 1.046875 3.71875q0 0.109375 0 0.296875q0 0.171875 -0.015625 0.3125l-6.640625 0q0.109375 1.515625 0.875 2.296875q0.765625 0.78125 2.390625 0.78125q0.90625 0 1.53125 -0.15625q0.625 -0.15625 0.9375 -0.296875l0.25 1.453125q-0.3125 0.15625 -1.109375 0.34375q-0.796875 0.1875 -1.796875 0.1875q-1.265625 0 -2.203125 -0.375q-0.921875 -0.390625 -1.515625 -1.0625q-0.59375 -0.671875 -0.890625 -1.59375q-0.28125 -0.921875 -0.28125 -2.015625zm6.65625 -0.953125q0.015625 -1.171875 -0.59375 -1.921875q-0.59375 -0.765625 -1.65625 -0.765625q-0.609375 0 -1.0625 0.234375q-0.453125 0.234375 -0.78125 0.609375q-0.3125 0.375 -0.484375 0.859375q-0.171875 0.484375 -0.234375 0.984375l4.8125 0zm6.5694733 4.53125q1.0625 0 1.578125 -0.28125q0.515625 -0.28125 0.515625 -0.890625q0 -0.640625 -0.515625 -1.015625q-0.5 -0.375 -1.65625 -0.828125q-0.5625 -0.234375 -1.078125 -0.46875q-0.5 -0.234375 -0.875 -0.546875q-0.375 -0.3125 -0.609375 -0.765625q-0.21875 -0.453125 -0.21875 -1.09375q0 -1.296875 0.953125 -2.046875q0.953125 -0.75 2.59375 -0.75q0.40625 0 0.8125 0.046875q0.421875 0.046875 0.765625 0.109375q0.359375 0.0625 0.625 0.140625q0.28125 0.0625 0.4375 0.125l-0.328125 1.5q-0.28125 -0.15625 -0.875 -0.3125q-0.59375 -0.15625 -1.4375 -0.15625q-0.71875 0 -1.265625 0.296875q-0.546875 0.28125 -0.546875 0.890625q0 0.3125 0.125 0.5625q0.125 0.234375 0.375 0.4375q0.25 0.203125 0.625 0.375q0.375 0.15625 0.890625 0.34375q0.6875 0.265625 1.234375 0.515625q0.546875 0.25 0.921875 0.59375q0.390625 0.328125 0.59375 0.8125q0.203125 0.46875 0.203125 1.15625q0 1.34375 -1.0 2.03125q-1.0 0.6875 -2.84375 0.6875q-1.28125 0 -2.015625 -0.21875q-0.734375 -0.203125 -0.984375 -0.3125l0.3125 -1.5q0.296875 0.109375 0.953125 0.34375q0.65625 0.21875 1.734375 0.21875zm7.680069 -8.453125l3.6875 0l0 1.453125l-3.6875 0l0 4.484375q0 0.71875 0.109375 1.203125q0.125 0.46875 0.34375 0.75q0.21875 0.265625 0.546875 0.375q0.34375 0.109375 0.796875 0.109375q0.78125 0 1.25 -0.171875q0.484375 -0.171875 0.671875 -0.25l0.328125 1.4375q-0.25 0.125 -0.90625 0.3125q-0.65625 0.203125 -1.5 0.203125q-0.984375 0 -1.625 -0.25q-0.640625 -0.25 -1.03125 -0.75q-0.390625 -0.515625 -0.5625 -1.25q-0.15625 -0.734375 -0.15625 -1.703125l0 -8.65625l1.734375 -0.296875l0 3.0zm9.559418 6.265625q0 -0.71875 0.21875 -1.28125q0.234375 -0.578125 0.609375 -1.03125q0.390625 -0.46875 0.890625 -0.8125q0.5 -0.34375 1.046875 -0.59375q-1.390625 -1.390625 -1.390625 -2.859375q0 -0.75 0.25 -1.34375q0.265625 -0.59375 0.703125 -1.0q0.4375 -0.421875 1.03125 -0.640625q0.609375 -0.234375 1.34375 -0.234375q0.75 0 1.328125 0.234375q0.59375 0.21875 0.984375 0.59375q0.40625 0.375 0.609375 0.90625q0.203125 0.515625 0.203125 1.09375q0 0.65625 -0.21875 1.171875q-0.203125 0.515625 -0.578125 0.953125q-0.359375 0.421875 -0.828125 0.78125q-0.453125 0.359375 -0.984375 0.640625l3.03125 3.078125q0.625 -1.1875 0.8125 -2.625l1.4375 0.1875q-0.078125 0.765625 -0.390625 1.671875q-0.296875 0.90625 -0.859375 1.796875q0.65625 0.71875 1.203125 1.40625q0.546875 0.6875 0.90625 1.34375l-1.828125 0q-0.21875 -0.375 -0.546875 -0.765625q-0.328125 -0.390625 -0.6875 -0.78125q-0.765625 0.765625 -1.78125 1.25q-1.0 0.46875 -2.296875 0.46875q-1.21875 0 -2.03125 -0.34375q-0.796875 -0.34375 -1.296875 -0.875q-0.484375 -0.53125 -0.6875 -1.171875q-0.203125 -0.640625 -0.203125 -1.21875zm1.734375 -0.03125q0 0.328125 0.125 0.734375q0.140625 0.390625 0.4375 0.71875q0.296875 0.3125 0.765625 0.53125q0.484375 0.21875 1.1875 0.21875q0.921875 0 1.6875 -0.328125q0.78125 -0.34375 1.375 -0.96875l-3.640625 -3.671875q-0.328125 0.171875 -0.6875 0.40625q-0.34375 0.21875 -0.625 0.546875q-0.265625 0.3125 -0.453125 0.765625q-0.171875 0.453125 -0.171875 1.046875zm4.53125 -6.890625q0 -0.625 -0.421875 -1.0625q-0.421875 -0.4375 -1.140625 -0.4375q-0.828125 0 -1.265625 0.5q-0.4375 0.484375 -0.4375 1.203125q0 1.21875 1.265625 2.375q0.421875 -0.203125 0.78125 -0.4375q0.359375 -0.25 0.625 -0.5625q0.28125 -0.328125 0.4375 -0.703125q0.15625 -0.390625 0.15625 -0.875z" fill-rule="nonzero"/><path fill="#000000" d="m150.93266 558.9209q0.3125 0.375 0.765625 0.984375q0.453125 0.59375 0.9375 1.34375q0.484375 0.734375 0.953125 1.53125q0.484375 0.796875 0.828125 1.546875l-1.984375 0q-0.375 -0.703125 -0.8125 -1.4375q-0.4375 -0.734375 -0.890625 -1.390625q-0.4375 -0.65625 -0.875 -1.234375q-0.4375 -0.578125 -0.796875 -1.015625q-0.25 0.015625 -0.5 0.015625q-0.25 0 -0.515625 0l-1.609375 0l0 5.0625l-1.8125 0l0 -12.75q0.765625 -0.171875 1.703125 -0.234375q0.9375 -0.078125 1.71875 -0.078125q2.734375 0 4.15625 1.03125q1.421875 1.03125 1.421875 3.0625q0 1.28125 -0.6875 2.203125q-0.671875 0.90625 -2.0 1.359375zm-2.734375 -6.0625q-1.15625 0 -1.765625 0.046875l0 4.875l1.28125 0q0.9375 0 1.671875 -0.09375q0.75 -0.09375 1.265625 -0.34375q0.515625 -0.265625 0.796875 -0.734375q0.28125 -0.484375 0.28125 -1.28125q0 -0.71875 -0.28125 -1.203125q-0.28125 -0.484375 -0.765625 -0.765625q-0.46875 -0.28125 -1.125 -0.390625q-0.640625 -0.109375 -1.359375 -0.109375zm7.500412 6.640625q0 -1.296875 0.375 -2.25q0.375 -0.96875 0.984375 -1.59375q0.609375 -0.640625 1.40625 -0.953125q0.8125 -0.3125 1.65625 -0.3125q1.953125 0 3.0 1.21875q1.046875 1.21875 1.046875 3.71875q0 0.109375 0 0.296875q0 0.171875 -0.015625 0.3125l-6.640625 0q0.109375 1.515625 0.875 2.296875q0.765625 0.78125 2.390625 0.78125q0.90625 0 1.53125 -0.15625q0.625 -0.15625 0.9375 -0.296875l0.25 1.453125q-0.3125 0.15625 -1.109375 0.34375q-0.796875 0.1875 -1.796875 0.1875q-1.265625 0 -2.203125 -0.375q-0.921875 -0.390625 -1.515625 -1.0625q-0.59375 -0.671875 -0.890625 -1.59375q-0.28125 -0.921875 -0.28125 -2.015625zm6.65625 -0.953125q0.015625 -1.171875 -0.59375 -1.921875q-0.59375 -0.765625 -1.65625 -0.765625q-0.609375 0 -1.0625 0.234375q-0.453125 0.234375 -0.78125 0.609375q-0.3125 0.375 -0.484375 0.859375q-0.171875 0.484375 -0.234375 0.984375l4.8125 0zm12.241348 5.78125q-0.515625 -1.34375 -1.109375 -3.0625q-0.59375 -1.734375 -1.078125 -3.59375q-0.484375 1.859375 -1.0625 3.59375q-0.578125 1.71875 -1.09375 3.0625l-1.515625 0q-0.859375 -1.921875 -1.6875 -4.375q-0.8125 -2.46875 -1.546875 -5.328125l1.875 0q0.1875 0.875 0.4375 1.90625q0.265625 1.03125 0.546875 2.0625q0.296875 1.015625 0.609375 1.96875q0.328125 0.953125 0.609375 1.65625q0.3125 -0.875 0.609375 -1.84375q0.3125 -0.984375 0.59375 -1.984375q0.28125 -1.0 0.53125 -1.953125q0.265625 -0.96875 0.4375 -1.8125l1.4375 0q0.171875 0.84375 0.40625 1.8125q0.25 0.953125 0.53125 1.953125q0.28125 1.0 0.578125 1.984375q0.3125 0.96875 0.640625 1.84375q0.28125 -0.703125 0.578125 -1.65625q0.3125 -0.953125 0.609375 -1.96875q0.296875 -1.03125 0.5625 -2.0625q0.265625 -1.03125 0.453125 -1.90625l1.78125 0q-0.71875 2.859375 -1.546875 5.328125q-0.8125 2.453125 -1.671875 4.375l-1.515625 0zm10.152161 -9.90625q0.21875 0 0.5 0.03125q0.296875 0.03125 0.578125 0.078125q0.28125 0.046875 0.515625 0.09375q0.234375 0.046875 0.34375 0.078125l-0.296875 1.515625q-0.203125 -0.078125 -0.6875 -0.171875q-0.46875 -0.109375 -1.21875 -0.109375q-0.484375 0 -0.96875 0.109375q-0.46875 0.09375 -0.609375 0.125l0 8.15625l-1.734375 0l0 -9.296875q0.609375 -0.21875 1.515625 -0.40625q0.921875 -0.203125 2.0625 -0.203125zm5.357559 9.90625l-1.734375 0l0 -9.703125l1.734375 0l0 9.703125zm-0.890625 -11.453125q-0.453125 0 -0.78125 -0.3125q-0.328125 -0.3125 -0.328125 -0.828125q0 -0.515625 0.328125 -0.828125q0.328125 -0.3125 0.78125 -0.3125q0.46875 0 0.796875 0.3125q0.328125 0.3125 0.328125 0.828125q0 0.515625 -0.328125 0.828125q-0.328125 0.3125 -0.796875 0.3125zm5.4856567 1.75l3.6875 0l0 1.453125l-3.6875 0l0 4.484375q0 0.71875 0.109375 1.203125q0.125 0.46875 0.34375 0.75q0.21875 0.265625 0.546875 0.375q0.34375 0.109375 0.796875 0.109375q0.78125 0 1.25 -0.171875q0.484375 -0.171875 0.671875 -0.25l0.328125 1.4375q-0.25 0.125 -0.90625 0.3125q-0.65625 0.203125 -1.5 0.203125q-0.984375 0 -1.625 -0.25q-0.640625 -0.25 -1.03125 -0.75q-0.390625 -0.515625 -0.5625 -1.25q-0.15625 -0.734375 -0.15625 -1.703125l0 -8.65625l1.734375 -0.296875l0 3.0zm5.156906 4.875q0 -1.296875 0.375 -2.25q0.375 -0.96875 0.984375 -1.59375q0.609375 -0.640625 1.40625 -0.953125q0.8125 -0.3125 1.65625 -0.3125q1.953125 0 3.0 1.21875q1.046875 1.21875 1.046875 3.71875q0 0.109375 0 0.296875q0 0.171875 -0.015625 0.3125l-6.640625 0q0.109375 1.515625 0.875 2.296875q0.765625 0.78125 2.390625 0.78125q0.90625 0 1.53125 -0.15625q0.625 -0.15625 0.9375 -0.296875l0.25 1.453125q-0.3125 0.15625 -1.109375 0.34375q-0.796875 0.1875 -1.796875 0.1875q-1.265625 0 -2.203125 -0.375q-0.921875 -0.390625 -1.515625 -1.0625q-0.59375 -0.671875 -0.890625 -1.59375q-0.28125 -0.921875 -0.28125 -2.015625zm6.65625 -0.953125q0.015625 -1.171875 -0.59375 -1.921875q-0.59375 -0.765625 -1.65625 -0.765625q-0.609375 0 -1.0625 0.234375q-0.453125 0.234375 -0.78125 0.609375q-0.3125 0.375 -0.484375 0.859375q-0.171875 0.484375 -0.234375 0.984375l4.8125 0z" fill-rule="nonzero"/><path fill="#cc4125" d="m29.92651 634.91864l0 0c0 10.215088 33.12388 18.496033 73.98425 18.496033c40.860374 0 73.98426 -8.280945 73.98426 -18.496033l0 115.13385c0 10.215088 -33.123886 18.496094 -73.98426 18.496094c-40.86037 0 -73.98425 -8.281006 -73.98425 -18.496094z" fill-rule="evenodd"/><path fill="#e08d7c" d="m29.92651 634.91864l0 0c0 -10.215088 33.12388 -18.496094 73.98425 -18.496094c40.860374 0 73.98426 8.281006 73.98426 18.496094l0 0c0 10.215088 -33.123886 18.496033 -73.98426 18.496033c-40.86037 0 -73.98425 -8.280945 -73.98425 -18.496033z" fill-rule="evenodd"/><path fill="#000000" fill-opacity="0.0" d="m177.89502 634.91864l0 0c0 10.215088 -33.123886 18.496033 -73.98426 18.496033c-40.86037 0 -73.98425 -8.280945 -73.98425 -18.496033l0 0c0 -10.215088 33.12388 -18.496094 73.98425 -18.496094c40.860374 0 73.98426 8.281006 73.98426 18.496094l0 115.13385c0 10.215088 -33.123886 18.496094 -73.98426 18.496094c-40.86037 0 -73.98425 -8.281006 -73.98425 -18.496094l0 -115.13385" fill-rule="evenodd"/><path fill="#000000" d="m71.24905 691.1848q0 -1.671875 0.5 -2.9375q0.5 -1.265625 1.34375 -2.109375q0.84375 -0.859375 1.96875 -1.28125q1.140625 -0.4375 2.40625 -0.4375q1.25 0 2.359375 0.4375q1.109375 0.421875 1.9375 1.28125q0.84375 0.84375 1.34375 2.109375q0.5 1.265625 0.5 2.9375q0 1.65625 -0.5 2.921875q-0.5 1.265625 -1.34375 2.125q-0.828125 0.84375 -1.9375 1.28125q-1.109375 0.421875 -2.359375 0.421875q-1.265625 0 -2.40625 -0.421875q-1.125 -0.4375 -1.96875 -1.28125q-0.84375 -0.859375 -1.34375 -2.125q-0.5 -1.265625 -0.5 -2.921875zm1.90625 0q0 1.171875 0.296875 2.140625q0.296875 0.953125 0.84375 1.625q0.5625 0.671875 1.34375 1.03125q0.796875 0.359375 1.78125 0.359375q1.0 0 1.78125 -0.359375q0.78125 -0.359375 1.328125 -1.03125q0.546875 -0.671875 0.84375 -1.625q0.3125 -0.96875 0.3125 -2.140625q0 -1.1875 -0.3125 -2.140625q-0.296875 -0.96875 -0.84375 -1.625q-0.546875 -0.671875 -1.328125 -1.03125q-0.78125 -0.375 -1.78125 -0.375q-0.984375 0 -1.78125 0.375q-0.78125 0.359375 -1.34375 1.03125q-0.546875 0.65625 -0.84375 1.625q-0.296875 0.953125 -0.296875 2.140625zm16.608322 -3.4375q0.21875 0 0.5 0.03125q0.296875 0.03125 0.578125 0.078125q0.28125 0.046875 0.515625 0.09375q0.234375 0.046875 0.34375 0.078125l-0.296875 1.515625q-0.203125 -0.078125 -0.6875 -0.171875q-0.46875 -0.109375 -1.21875 -0.109375q-0.484375 0 -0.96875 0.109375q-0.46875 0.09375 -0.609375 0.125l0 8.15625l-1.734375 0l0 -9.296875q0.609375 -0.21875 1.515625 -0.40625q0.921875 -0.203125 2.0625 -0.203125zm5.357559 9.90625l-1.734375 0l0 -9.703125l1.734375 0l0 9.703125zm-0.890625 -11.453125q-0.453125 0 -0.78125 -0.3125q-0.328125 -0.3125 -0.328125 -0.828125q0 -0.515625 0.328125 -0.828125q0.328125 -0.3125 0.78125 -0.3125q0.46875 0 0.796875 0.3125q0.328125 0.3125 0.328125 0.828125q0 0.515625 -0.328125 0.828125q-0.328125 0.3125 -0.796875 0.3125zm9.954407 10.484375q-0.234375 0.140625 -0.875 0.375q-0.640625 0.234375 -1.5 0.234375q-0.875 0 -1.65625 -0.28125q-0.765625 -0.28125 -1.34375 -0.859375q-0.578125 -0.59375 -0.921875 -1.46875q-0.328125 -0.875 -0.328125 -2.09375q0 -1.0625 0.3125 -1.9375q0.3125 -0.890625 0.921875 -1.53125q0.609375 -0.640625 1.484375 -1.0q0.875 -0.375 1.984375 -0.375q1.203125 0 2.109375 0.1875q0.90625 0.171875 1.53125 0.3125l0 8.65625q0 2.25 -1.15625 3.25q-1.15625 1.0 -3.515625 1.0q-0.90625 0 -1.71875 -0.15625q-0.8125 -0.140625 -1.40625 -0.34375l0.3125 -1.5q0.515625 0.203125 1.265625 0.359375q0.765625 0.15625 1.59375 0.15625q1.546875 0 2.21875 -0.625q0.6875 -0.609375 0.6875 -1.953125l0 -0.40625zm-0.015625 -7.203125q-0.265625 -0.078125 -0.703125 -0.140625q-0.4375 -0.0625 -1.1875 -0.0625q-1.40625 0 -2.15625 0.921875q-0.75 0.90625 -0.75 2.421875q0 0.828125 0.203125 1.4375q0.21875 0.59375 0.578125 0.984375q0.375 0.390625 0.84375 0.578125q0.484375 0.1875 0.984375 0.1875q0.6875 0 1.265625 -0.1875q0.578125 -0.203125 0.921875 -0.46875l0 -5.671875zm6.455185 8.171875l-1.734375 0l0 -9.703125l1.734375 0l0 9.703125zm-0.890625 -11.453125q-0.453125 0 -0.78125 -0.3125q-0.328125 -0.3125 -0.328125 -0.828125q0 -0.515625 0.328125 -0.828125q0.328125 -0.3125 0.78125 -0.3125q0.46875 0 0.796875 0.3125q0.328125 0.3125 0.328125 0.828125q0 0.515625 -0.328125 0.828125q-0.328125 0.3125 -0.796875 0.3125zm3.8762817 2.03125q0.59375 -0.15625 1.578125 -0.3125q0.984375 -0.171875 2.28125 -0.171875q1.15625 0 1.921875 0.328125q0.765625 0.328125 1.21875 0.921875q0.453125 0.578125 0.640625 1.40625q0.1875 0.8125 0.1875 1.796875l0 5.453125l-1.734375 0l0 -5.078125q0 -0.890625 -0.125 -1.515625q-0.125 -0.640625 -0.40625 -1.03125q-0.265625 -0.390625 -0.734375 -0.5625q-0.46875 -0.1875 -1.15625 -0.1875q-0.28125 0 -0.578125 0.015625q-0.296875 0.015625 -0.578125 0.046875q-0.265625 0.03125 -0.484375 0.078125q-0.203125 0.03125 -0.296875 0.046875l0 8.1875l-1.734375 0l0 -9.421875zm13.989944 8.171875q0.6093826 0 1.0781326 -0.03125q0.484375 -0.03125 0.796875 -0.09375l0 -2.890625q-0.1875 -0.09375 -0.609375 -0.15625q-0.40625 -0.078125 -1.0156326 -0.078125q-0.390625 0 -0.828125 0.0625q-0.4375 0.046875 -0.796875 0.234375q-0.359375 0.171875 -0.609375 0.484375q-0.234375 0.296875 -0.234375 0.8125q0 0.921875 0.59375 1.296875q0.59375 0.359375 1.625 0.359375zm-0.15625 -8.6875q1.0468826 0 1.7656326 0.265625q0.71875 0.265625 1.15625 0.765625q0.4375 0.5 0.625 1.1875q0.1875 0.671875 0.1875 1.484375l0 6.0625q-0.21875 0.046875 -0.625 0.109375q-0.40625 0.0625 -0.90625 0.109375q-0.5 0.0625 -1.09375 0.109375q-0.5781326 0.046875 -1.1562576 0.046875q-0.828125 0 -1.515625 -0.171875q-0.6875 -0.15625 -1.203125 -0.515625q-0.5 -0.375 -0.78125 -0.96875q-0.28125 -0.59375 -0.28125 -1.4375q0 -0.796875 0.328125 -1.375q0.328125 -0.578125 0.890625 -0.9375q0.5625 -0.359375 1.296875 -0.515625q0.75 -0.171875 1.578125 -0.171875q0.265625 0 0.5312576 0.03125q0.28125 0.015625 0.53125 0.0625q0.265625 0.046875 0.4375 0.09375q0.1875 0.03125 0.265625 0.046875l0 -0.484375q0 -0.421875 -0.09375 -0.84375q-0.09375 -0.421875 -0.34375 -0.75q-0.234375 -0.328125 -0.65625 -0.515625q-0.40625763 -0.203125 -1.0781326 -0.203125q-0.859375 0 -1.515625 0.125q-0.640625 0.125 -0.953125 0.25l-0.203125 -1.4375q0.328125 -0.140625 1.109375 -0.28125q0.796875 -0.140625 1.703125 -0.140625zm9.519829 10.125q-1.609375 -0.03125 -2.28125 -0.6875q-0.671875 -0.65625 -0.671875 -2.03125l0 -11.640625l1.734375 -0.3125l0 11.671875q0 0.421875 0.078125 0.703125q0.078125 0.28125 0.234375 0.453125q0.171875 0.15625 0.453125 0.25q0.28125 0.078125 0.6875 0.140625l-0.234375 1.453125z" fill-rule="nonzero"/><path fill="#000000" d="m93.324615 718.3723q2.828125 0 2.828125 -1.953125q0 -0.59375 -0.25 -1.015625q-0.25 -0.421875 -0.6875 -0.71875q-0.421875 -0.3125 -0.96875 -0.53125q-0.546875 -0.234375 -1.171875 -0.453125q-0.703125 -0.234375 -1.34375 -0.546875q-0.625 -0.3125 -1.09375 -0.734375q-0.46875 -0.421875 -0.734375 -1.0q-0.265625 -0.578125 -0.265625 -1.390625q0 -1.703125 1.15625 -2.65625q1.15625 -0.953125 3.1875 -0.953125q1.171875 0 2.125 0.265625q0.96875 0.25 1.421875 0.546875l-0.578125 1.46875q-0.40625 -0.234375 -1.1875 -0.46875q-0.765625 -0.234375 -1.78125 -0.234375q-0.53125 0 -0.984375 0.109375q-0.4375 0.109375 -0.78125 0.34375q-0.328125 0.21875 -0.53125 0.5625q-0.1875 0.34375 -0.1875 0.8125q0 0.515625 0.203125 0.875q0.203125 0.359375 0.578125 0.625q0.375 0.265625 0.859375 0.5q0.5 0.21875 1.09375 0.4375q0.84375 0.34375 1.546875 0.6875q0.703125 0.328125 1.203125 0.796875q0.515625 0.453125 0.796875 1.109375q0.28125 0.640625 0.28125 1.546875q0 1.703125 -1.25 2.625q-1.234375 0.90625 -3.484375 0.90625q-0.765625 0 -1.40625 -0.109375q-0.640625 -0.09375 -1.15625 -0.234375q-0.5 -0.140625 -0.859375 -0.296875q-0.359375 -0.15625 -0.578125 -0.28125l0.546875 -1.484375q0.421875 0.234375 1.296875 0.546875q0.890625 0.296875 2.15625 0.296875zm9.925125 0q2.828125 0 2.828125 -1.953125q0 -0.59375 -0.25 -1.015625q-0.25 -0.421875 -0.6875 -0.71875q-0.421875 -0.3125 -0.96875 -0.53125q-0.546875 -0.234375 -1.171875 -0.453125q-0.703125 -0.234375 -1.34375 -0.546875q-0.625 -0.3125 -1.09375 -0.734375q-0.46875 -0.421875 -0.734375 -1.0q-0.265625 -0.578125 -0.265625 -1.390625q0 -1.703125 1.15625 -2.65625q1.15625 -0.953125 3.1875 -0.953125q1.171875 0 2.125 0.265625q0.96875 0.25 1.421875 0.546875l-0.578125 1.46875q-0.40625 -0.234375 -1.1875 -0.46875q-0.765625 -0.234375 -1.78125 -0.234375q-0.53125 0 -0.984375 0.109375q-0.4375 0.109375 -0.78125 0.34375q-0.328125 0.21875 -0.53125 0.5625q-0.1875 0.34375 -0.1875 0.8125q0 0.515625 0.203125 0.875q0.203125 0.359375 0.578125 0.625q0.375 0.265625 0.859375 0.5q0.5 0.21875 1.09375 0.4375q0.84375 0.34375 1.546875 0.6875q0.703125 0.328125 1.203125 0.796875q0.515625 0.453125 0.796875 1.109375q0.28125 0.640625 0.28125 1.546875q0 1.703125 -1.25 2.625q-1.234375 0.90625 -3.484375 0.90625q-0.765625 0 -1.40625 -0.109375q-0.640625 -0.09375 -1.15625 -0.234375q-0.5 -0.140625 -0.859375 -0.296875q-0.359375 -0.15625 -0.578125 -0.28125l0.546875 -1.484375q0.421875 0.234375 1.296875 0.546875q0.890625 0.296875 2.15625 0.296875zm15.56575 -11.640625l0 1.5625l-4.078125 0l0 11.359375l-1.8125 0l0 -11.359375l-4.0625 0l0 -1.5625l9.953125 0z" fill-rule="nonzero"/><path fill="#000000" fill-opacity="0.0" d="m177.89401 484.94257l-1.7322845 35.4646" fill-rule="evenodd"/><path stroke="#000000" stroke-width="1.0" stroke-linejoin="round" stroke-linecap="butt" d="m177.89401 484.94257l-1.7322845 35.4646" fill-rule="evenodd"/><path fill="#000000" fill-opacity="0.0" d="m176.17223 572.40717l-72.25197 44.0" fill-rule="evenodd"/><path stroke="#000000" stroke-width="1.0" stroke-linejoin="round" stroke-linecap="butt" d="m176.17223 572.40717l-72.25197 44.0" fill-rule="evenodd"/><path fill="#d9ead3" d="m231.86777 666.4859l197.63779 0l0 52.0l-197.63779 0z" fill-rule="evenodd"/><path fill="#000000" d="m293.28714 686.484q-0.578125 0.625 -1.3125 1.40625q-0.71875 0.765625 -1.515625 1.578125q-0.78125 0.8125 -1.578125 1.59375q-0.78125 0.78125 -1.46875 1.453125q0.796875 0.5625 1.6875 1.390625q0.90625 0.8125 1.765625 1.75q0.859375 0.9375 1.609375 1.90625q0.765625 0.96875 1.265625 1.84375l-2.125 0q-0.5625 -0.875 -1.296875 -1.765625q-0.71875 -0.890625 -1.53125 -1.6875q-0.8125 -0.8125 -1.640625 -1.5q-0.828125 -0.703125 -1.609375 -1.1875l0 6.140625l-1.8125 0l0 -12.921875l1.8125 0l0 5.703125q0.640625 -0.609375 1.421875 -1.390625q0.796875 -0.78125 1.546875 -1.5625q0.765625 -0.78125 1.453125 -1.5q0.6875 -0.71875 1.15625 -1.25l2.171875 0zm1.1240234 8.09375q0 -1.296875 0.375 -2.25q0.375 -0.96875 0.984375 -1.59375q0.609375 -0.640625 1.40625 -0.953125q0.8125 -0.3125 1.65625 -0.3125q1.953125 0 3.0 1.21875q1.046875 1.21875 1.046875 3.71875q0 0.109375 0 0.296875q0 0.171875 -0.015625 0.3125l-6.640625 0q0.109375 1.515625 0.875 2.296875q0.765625 0.78125 2.390625 0.78125q0.90625 0 1.53125 -0.15625q0.625 -0.15625 0.9375 -0.296875l0.25 1.453125q-0.3125 0.15625 -1.109375 0.34375q-0.796875 0.1875 -1.796875 0.1875q-1.265625 0 -2.203125 -0.375q-0.921875 -0.390625 -1.515625 -1.0625q-0.59375 -0.671875 -0.890625 -1.59375q-0.28125 -0.921875 -0.28125 -2.015625zm6.65625 -0.953125q0.015625 -1.171875 -0.59375 -1.921875q-0.59375 -0.765625 -1.65625 -0.765625q-0.609375 0 -1.0625 0.234375q-0.453125 0.234375 -0.78125 0.609375q-0.3125 0.375 -0.484375 0.859375q-0.171875 0.484375 -0.234375 0.984375l4.8125 0zm3.1788635 7.59375q0.203125 0.09375 0.53125 0.171875q0.328125 0.09375 0.640625 0.09375q1.03125 0 1.609375 -0.46875q0.578125 -0.453125 1.03125 -1.484375q-1.171875 -2.234375 -2.1875 -4.734375q-1.015625 -2.515625 -1.6875 -5.09375l1.875 0q0.203125 0.84375 0.484375 1.8125q0.296875 0.96875 0.640625 2.0q0.359375 1.015625 0.765625 2.046875q0.421875 1.03125 0.859375 1.984375q0.71875 -1.96875 1.234375 -3.890625q0.515625 -1.921875 0.984375 -3.953125l1.796875 0q-0.671875 2.75 -1.5 5.28125q-0.8125 2.515625 -1.765625 4.71875q-0.375 0.84375 -0.78125 1.4375q-0.390625 0.609375 -0.875 1.0q-0.484375 0.40625 -1.09375 0.578125q-0.609375 0.1875 -1.375 0.1875q-0.203125 0 -0.4375 -0.03125q-0.21875 -0.015625 -0.4375 -0.0625q-0.203125 -0.046875 -0.390625 -0.109375q-0.171875 -0.046875 -0.25 -0.09375l0.328125 -1.390625zm18.300507 -11.71875q0.21875 0 0.5 0.03125q0.296875 0.03125 0.578125 0.078125q0.28125 0.046875 0.515625 0.09375q0.234375 0.046875 0.34375 0.078125l-0.296875 1.515625q-0.203125 -0.078125 -0.6875 -0.171875q-0.46875 -0.109375 -1.21875 -0.109375q-0.484375 0 -0.96875 0.109375q-0.46875 0.09375 -0.609375 0.125l0 8.15625l-1.734375 0l0 -9.296875q0.609375 -0.21875 1.515625 -0.40625q0.921875 -0.203125 2.0625 -0.203125zm3.076294 5.078125q0 -1.296875 0.375 -2.25q0.375 -0.96875 0.984375 -1.59375q0.609375 -0.640625 1.40625 -0.953125q0.8125 -0.3125 1.65625 -0.3125q1.953125 0 3.0 1.21875q1.046875 1.21875 1.046875 3.71875q0 0.109375 0 0.296875q0 0.171875 -0.015625 0.3125l-6.640625 0q0.109375 1.515625 0.875 2.296875q0.765625 0.78125 2.390625 0.78125q0.90625 0 1.53125 -0.15625q0.625 -0.15625 0.9375 -0.296875l0.25 1.453125q-0.3125 0.15625 -1.109375 0.34375q-0.796875 0.1875 -1.796875 0.1875q-1.265625 0 -2.203125 -0.375q-0.921875 -0.390625 -1.515625 -1.0625q-0.59375 -0.671875 -0.890625 -1.59375q-0.28125 -0.921875 -0.28125 -2.015625zm6.65625 -0.953125q0.015625 -1.171875 -0.59375 -1.921875q-0.59375 -0.765625 -1.65625 -0.765625q-0.609375 0 -1.0625 0.234375q-0.453125 0.234375 -0.78125 0.609375q-0.3125 0.375 -0.484375 0.859375q-0.171875 0.484375 -0.234375 0.984375l4.8125 0zm12.241364 5.78125q-0.515625 -1.34375 -1.109375 -3.0625q-0.59375 -1.734375 -1.078125 -3.59375q-0.484375 1.859375 -1.0625 3.59375q-0.578125 1.71875 -1.09375 3.0625l-1.515625 0q-0.859375 -1.921875 -1.6875 -4.375q-0.8125 -2.46875 -1.546875 -5.328125l1.875 0q0.1875 0.875 0.4375 1.90625q0.265625 1.03125 0.546875 2.0625q0.296875 1.015625 0.609375 1.96875q0.328125 0.953125 0.609375 1.65625q0.3125 -0.875 0.609375 -1.84375q0.3125 -0.984375 0.59375 -1.984375q0.28125 -1.0 0.53125 -1.953125q0.265625 -0.96875 0.4375 -1.8125l1.4375 0q0.171875 0.84375 0.40625 1.8125q0.25 0.953125 0.53125 1.953125q0.28125 1.0 0.578125 1.984375q0.3125 0.96875 0.640625 1.84375q0.28125 -0.703125 0.578125 -1.65625q0.3125 -0.953125 0.609375 -1.96875q0.296875 -1.03125 0.5625 -2.0625q0.265625 -1.03125 0.453125 -1.90625l1.78125 0q-0.71875 2.859375 -1.546875 5.328125q-0.8125 2.453125 -1.671875 4.375l-1.515625 0zm10.152161 -9.90625q0.21875 0 0.5 0.03125q0.296875 0.03125 0.578125 0.078125q0.28125 0.046875 0.515625 0.09375q0.234375 0.046875 0.34375 0.078125l-0.296875 1.515625q-0.203125 -0.078125 -0.6875 -0.171875q-0.46875 -0.109375 -1.21875 -0.109375q-0.484375 0 -0.96875 0.109375q-0.46875 0.09375 -0.609375 0.125l0 8.15625l-1.734375 0l0 -9.296875q0.609375 -0.21875 1.515625 -0.40625q0.921875 -0.203125 2.0625 -0.203125zm5.357544 9.90625l-1.734375 0l0 -9.703125l1.734375 0l0 9.703125zm-0.890625 -11.453125q-0.453125 0 -0.78125 -0.3125q-0.328125 -0.3125 -0.328125 -0.828125q0 -0.515625 0.328125 -0.828125q0.328125 -0.3125 0.78125 -0.3125q0.46875 0 0.796875 0.3125q0.328125 0.3125 0.328125 0.828125q0 0.515625 -0.328125 0.828125q-0.328125 0.3125 -0.796875 0.3125zm5.4856567 1.75l3.6875 0l0 1.453125l-3.6875 0l0 4.484375q0 0.71875 0.109375 1.203125q0.125 0.46875 0.34375 0.75q0.21875 0.265625 0.546875 0.375q0.34375 0.109375 0.796875 0.109375q0.78125 0 1.25 -0.171875q0.484375 -0.171875 0.671875 -0.25l0.328125 1.4375q-0.25 0.125 -0.90625 0.3125q-0.65625 0.203125 -1.5 0.203125q-0.984375 0 -1.625 -0.25q-0.640625 -0.25 -1.03125 -0.75q-0.390625 -0.515625 -0.5625 -1.25q-0.15625 -0.734375 -0.15625 -1.703125l0 -8.65625l1.734375 -0.296875l0 3.0zm5.1569214 4.875q0 -1.296875 0.375 -2.25q0.375 -0.96875 0.984375 -1.59375q0.609375 -0.640625 1.40625 -0.953125q0.8125 -0.3125 1.65625 -0.3125q1.953125 0 3.0 1.21875q1.046875 1.21875 1.046875 3.71875q0 0.109375 0 0.296875q0 0.171875 -0.015625 0.3125l-6.640625 0q0.109375 1.515625 0.875 2.296875q0.765625 0.78125 2.390625 0.78125q0.90625 0 1.53125 -0.15625q0.625 -0.15625 0.9375 -0.296875l0.25 1.453125q-0.3125 0.15625 -1.109375 0.34375q-0.796875 0.1875 -1.796875 0.1875q-1.265625 0 -2.203125 -0.375q-0.921875 -0.390625 -1.515625 -1.0625q-0.59375 -0.671875 -0.890625 -1.59375q-0.28125 -0.921875 -0.28125 -2.015625zm6.65625 -0.953125q0.015625 -1.171875 -0.59375 -1.921875q-0.59375 -0.765625 -1.65625 -0.765625q-0.609375 0 -1.0625 0.234375q-0.453125 0.234375 -0.78125 0.609375q-0.3125 0.375 -0.484375 0.859375q-0.171875 0.484375 -0.234375 0.984375l4.8125 0z" fill-rule="nonzero"/><path fill="#000000" fill-opacity="0.0" d="m177.89502 692.48553l53.984253 0" fill-rule="evenodd"/><path stroke="#000000" stroke-width="1.0" stroke-linejoin="round" stroke-linecap="butt" d="m177.89502 692.48553l53.984253 0" fill-rule="evenodd"/><path fill="#000000" fill-opacity="0.0" d="m429.50555 692.4859l53.984253 0" fill-rule="evenodd"/><path stroke="#000000" stroke-width="1.0" stroke-linejoin="round" stroke-linecap="butt" d="m429.50555 692.4859l53.984253 0" fill-rule="evenodd"/><path fill="#000000" fill-opacity="0.0" d="m549.18243 768.5486l-0.661438 53.44879" fill-rule="evenodd"/><path stroke="#000000" stroke-width="1.0" stroke-linejoin="round" stroke-linecap="butt" d="m549.18243 768.5486l-0.661438 53.44879" fill-rule="evenodd"/></g></svg>